<?xml version="1.0" encoding="UTF-8"?>
<svg version="1.1" xmlns="http://www.w3.org/2000/svg" width="351" height="257">
<path d="M0 0 C1.63921362 0.8462804 3.28411851 1.68174487 4.9375 2.5 C17.01312523 9.38056658 23.45756108 19.1763455 28 32 C31.4857586 45.13695271 29.17527754 58.56117299 22.6875 70.1875 C19.83299867 74.89439049 16.74860834 78.97710325 13 83 C28.35732922 87.06969224 46.26573753 90.46670756 61.00390625 82.37109375 C64.29915129 80.10762798 67.11937369 77.35373106 70.04296875 74.63671875 C79.71078606 66.01614188 89.7911505 58.55072554 102 54 C102.68964844 53.73703125 103.37929687 53.4740625 104.08984375 53.203125 C116.13482162 49.43429471 129.48273996 52.13867657 140.6796875 57.21484375 C156.9982231 66.2082859 168.11901148 81.0705838 175 98 C175.54527344 99.30324219 175.54527344 99.30324219 176.1015625 100.6328125 C180.68155133 113.94474266 179.56284269 131.20182597 174 144 C173.62617188 144.886875 173.25234375 145.77375 172.8671875 146.6875 C166.2126002 161.14249757 154.74943573 172.08924598 140 178 C137.77928439 178.69429867 135.54979589 179.36114511 133.3125 180 C128.20672854 181.45965708 124.62647022 183.40365263 120.35546875 186.484375 C110.40605647 192.88631856 98.13363006 194.85961318 86.65234375 196.70703125 C71.60516645 198.8794992 71.60516645 198.8794992 60 208 C58.97885745 211.26765616 58.78123269 213.1965959 59.6796875 216.49609375 C61.33788329 219.64077867 62.93250911 220.44571334 66.0625 222.0625 C70.77464062 224.50307785 70.77464062 224.50307785 71.93359375 227.05859375 C71.96646484 228.01958984 71.96646484 228.01958984 72 229 C70 231 70 231 66.1875 231.4375 C58.66989039 231.26719816 50.4971693 228.24348908 44.5 223.6875 C39.28657847 218.08307186 36.8617285 213.69069524 36 206 C35.175 206.4846875 34.35 206.969375 33.5 207.46875 C7.99536092 222.32836508 -20.03125922 236.49970478 -50.4375 229.9375 C-62.17849983 226.34160974 -71.97331214 220.21413822 -81 212 C-81.63292969 211.44828125 -82.26585938 210.8965625 -82.91796875 210.328125 C-98.79796223 195.64730723 -107.16725548 173.48583486 -108.44921875 152.23828125 C-109.0430735 133.87517905 -105.77181306 116.63990202 -98 100 C-97.56042969 99.02804688 -97.12085938 98.05609375 -96.66796875 97.0546875 C-90.11579878 83.79928888 -79.57239273 73.66427482 -65.6484375 68.796875 C-60.33127345 67.19702033 -55.35189955 66.81188845 -49.8125 66.8125 C-49.05437012 66.80677979 -48.29624023 66.80105957 -47.51513672 66.79516602 C-43.2830125 66.81280364 -39.70103315 67.19040451 -35.625 68.4375 C-31.30692506 69.47119876 -29.18880986 68.41717968 -25.4375 66.125 C-23.59296997 64.79327548 -21.77978433 63.41709174 -20 62 C-18.71802734 60.98873047 -18.71802734 60.98873047 -17.41015625 59.95703125 C-12.4736564 55.82061241 -8.47743057 52.2830366 -7.73046875 45.58203125 C-7.46639262 38.96056686 -8.64379847 35.64180171 -13.0625 30.6875 C-17.3187008 28.24244848 -21.20159395 28.66457744 -26 29 C-26.165 29.804375 -26.33 30.60875 -26.5 31.4375 C-30.17542214 40.16662759 -36.59485797 44.86147 -44.97265625 48.80859375 C-51.43462104 51.35168957 -56.94523998 52.30066387 -63.8125 52.1875 C-64.57498047 52.18685547 -65.33746094 52.18621094 -66.12304688 52.18554688 C-71.7179498 52.1410251 -71.7179498 52.1410251 -74 51 C-74.226875 51.7425 -74.45375 52.485 -74.6875 53.25 C-76.2589561 56.5425747 -77.99995716 57.97497109 -81 60 C-81.66 60 -82.32 60 -83 60 C-83.2475 60.886875 -83.495 61.77375 -83.75 62.6875 C-85.07435898 66.19705131 -86.31115465 68.3879788 -89 71 C-91.75 71.3125 -91.75 71.3125 -94 71 C-94.625 68.6875 -94.625 68.6875 -95 66 C-94.34 65.01 -93.68 64.02 -93 63 C-95.31 62.34 -97.62 61.68 -100 61 C-99.625 58.5625 -99.625 58.5625 -99 56 C-96.7440731 54.87203655 -95.19174245 54.80177006 -92.6875 54.625 C-88.74765093 54.23861609 -86.28630473 53.29045481 -83 51 C-82.34 51 -81.68 51 -81 51 C-80.22197813 48.6984589 -80.22197813 48.6984589 -80 46 C-80.46921875 45.37480469 -80.9384375 44.74960937 -81.421875 44.10546875 C-84.19776785 40.40198794 -84.19368565 36.52134936 -84 32 C-82.42127447 23.76102614 -79.64178042 17.18732994 -74 11 C-73.4946875 10.36964844 -72.989375 9.73929688 -72.46875 9.08984375 C-54.56230919 -11.38047382 -22.13252707 -14.67243399 0 0 Z M-67.34765625 16.9375 C-71.83690553 22.54110193 -75.05009384 29.71134668 -75 37 C-72.54896329 40.43145139 -70.98001917 41.67332694 -67 43 C-58.73112852 43.76563625 -50.34862949 41.86673045 -43.375 37.26953125 C-38.7401065 33.34709604 -35.54634082 29.01868934 -32.3125 23.921875 C-30.46425373 21.21551439 -29.12103185 20.06398813 -26 19 C-19.55342568 18.01258457 -14.63055093 18.9115105 -9.109375 22.38671875 C-3.80981593 26.43990004 0.66856467 31.04809529 1.84765625 37.8046875 C2.43305488 46.24043189 1.20538817 53.19691843 -4 60 C-8.66755254 64.94680782 -14.13492097 68.61510067 -20 72 C-16.63811286 74.85047788 -13.18915858 76.25259987 -9.0625 77.75 C-7.25458984 78.42289063 -7.25458984 78.42289063 -5.41015625 79.109375 C-1.92613196 80.019292 -0.3327273 80.25395258 3 79 C11.98430271 72.42192793 17.3117221 62.73421408 19.4375 51.9375 C20.96467892 39.86176568 18.68684726 29.64665551 11.4375 19.8125 C3.26016232 10.18677778 -9.52457771 3.84402924 -22 2 C-39.18523617 1.02121327 -55.11871084 3.73323992 -67.34765625 16.9375 Z M44 200 C44.04146065 205.59718753 44.50727679 210.44427407 48 215 C49.53395355 212.08683382 50.65990899 209.1654345 51.75 206.0625 C54.42655691 199.36126743 58.94753057 196.02895223 65.42578125 192.96875 C76.11677766 188.94543117 87.81256836 187.12175428 99 185 C99 184.67 99 184.34 99 184 C80.23851576 183.48676791 58.13319541 185.86680459 44 200 Z " fill="#626657" transform="translate(142,18)"/>
<path d="M0 0 C1.1290979 -0.0009668 1.1290979 -0.0009668 2.28100586 -0.00195312 C7.69203622 0.04944144 12.53296022 0.6698157 17.75 2.1875 C17.75 3.1775 17.75 4.1675 17.75 5.1875 C15.484375 6.87109375 15.484375 6.87109375 12.5 8.625 C8.72616078 10.85635732 5.82965362 13.0874062 2.75 16.1875 C2.09 16.1875 1.43 16.1875 0.75 16.1875 C0.255 17.6725 0.255 17.6725 -0.25 19.1875 C-1.40041292 20.33791292 -2.55375968 21.4855601 -3.72265625 22.6171875 C-11.47047027 30.58297072 -16.0261246 38.11893232 -16.75 49.25 C-17.26282978 53.62552016 -17.57476204 55.54234177 -20.79296875 58.6171875 C-22.89246347 59.95773444 -25.0296068 61.24102671 -27.19921875 62.46484375 C-34.86037398 66.79079696 -39.26945919 73.04216479 -41.93359375 81.30859375 C-44.89293011 92.75816409 -43.92076646 104.7134814 -38.3125 115.125 C-32.06747349 125.19219004 -23.78212441 132.83889763 -13.25 138.1875 C-12.46882813 138.62578125 -11.68765625 139.0640625 -10.8828125 139.515625 C8.88003853 149.73566634 35.75266997 150.33447977 56.7734375 144.2578125 C59.67192782 143.28567455 59.67192782 143.28567455 61.9765625 142.0546875 C63.75 141.1875 63.75 141.1875 66.75 141.1875 C66.255 138.7125 66.255 138.7125 65.75 136.1875 C61.44046485 135.9870565 58.69236867 136.54484639 54.75 138.1875 C35.46406867 144.78770884 12.21704399 142.90105658 -6.01757812 134.09375 C-9.13317802 132.52333061 -12.19423581 130.87144571 -15.25 129.1875 C-15.91 128.8575 -16.57 128.5275 -17.25 128.1875 C-17.25 127.5275 -17.25 126.8675 -17.25 126.1875 C-17.806875 125.960625 -18.36375 125.73375 -18.9375 125.5 C-21.92848327 123.8024149 -23.90614562 121.70285592 -26.25 119.1875 C-27.095625 118.300625 -27.94125 117.41375 -28.8125 116.5 C-35.20564963 108.73544919 -36.71871896 98.60030879 -36.66796875 88.88671875 C-36.02699006 83.21375781 -33.82842768 78.61949758 -30.25 74.1875 C-28.10546875 73.0078125 -28.10546875 73.0078125 -26.25 72.1875 C-25.940625 71.56875 -25.63125 70.95 -25.3125 70.3125 C-23.86448315 67.41646629 -21.87466519 66.02476563 -19.25 64.1875 C-18.59 64.1875 -17.93 64.1875 -17.25 64.1875 C-17.03085938 64.86554688 -16.81171875 65.54359375 -16.5859375 66.2421875 C-11.38934387 81.49397855 -3.28062194 92.67264763 11.0078125 100.41015625 C13.22497235 101.4551617 15.44911069 102.34371037 17.75 103.1875 C18.49894531 103.4865625 19.24789062 103.785625 20.01953125 104.09375 C33.61182957 108.71727195 51.64013788 107.88879391 64.59765625 101.86328125 C69.97358048 99.04591243 75.01546982 95.7850891 79.97265625 92.2890625 C81.75 91.1875 81.75 91.1875 83.75 91.1875 C83.75 90.5275 83.75 89.8675 83.75 89.1875 C85.11328125 87.9609375 85.11328125 87.9609375 87.0625 86.5625 C87.79855469 86.03011719 88.53460938 85.49773437 89.29296875 84.94921875 C90.10378906 84.36785156 90.91460937 83.78648437 91.75 83.1875 C92.57113281 82.57519531 93.39226562 81.96289062 94.23828125 81.33203125 C121.69377299 60.95395516 121.69377299 60.95395516 139.75 63.1875 C145.39642511 65.1560528 149.95581914 68.56334208 153.75 73.1875 C154.5625 75.0625 154.5625 75.0625 154.75 77.1875 C154.853125 78.280625 154.95625 79.37375 155.0625 80.5 C154.57955005 86.19880939 152.41165997 89.65046453 148.25 93.5 C144.61758771 95.9518783 141.55106775 97.38297963 137.22265625 98.1171875 C136.35423096 98.2704248 135.48580566 98.42366211 134.59106445 98.58154297 C133.67413818 98.74025879 132.75721191 98.89897461 131.8125 99.0625 C115.49258413 102.05767142 99.75224205 105.78197132 89.46875 119.953125 C86.87157084 124.36832957 86.73382058 127.5932759 86.875 132.6875 C86.69921875 136.07421875 86.69921875 136.07421875 85.75 139.1875 C82.15621938 142.40412223 78.15933456 144.32266165 73.79541016 146.25927734 C71.76067024 147.18265777 69.79632169 148.1884308 67.82421875 149.23828125 C46.35610167 160.5984266 20.89204356 169.73411947 -3.4296875 162.28515625 C-14.05867788 158.14838853 -22.8181735 152.86032411 -31.25 145.1875 C-31.88292969 144.63578125 -32.51585938 144.0840625 -33.16796875 143.515625 C-49.04796223 128.83480723 -57.41725548 106.67333486 -58.69921875 85.42578125 C-59.2930735 67.06267905 -56.02181306 49.82740202 -48.25 33.1875 C-47.81042969 32.21554688 -47.37085938 31.24359375 -46.91796875 30.2421875 C-40.36579878 16.98678888 -29.82239273 6.85177482 -15.8984375 1.984375 C-10.56203152 0.37873072 -5.56009502 -0.00489068 0 0 Z " fill="#A5A793" transform="translate(92.25,84.8125)"/>
<path d="M0 0 C12.39074139 10.24494893 20.93637907 21.08156756 27 36 C27.36351562 36.86882812 27.72703125 37.73765625 28.1015625 38.6328125 C32.68155133 51.94474266 31.56284269 69.20182597 26 82 C25.62617188 82.886875 25.25234375 83.77375 24.8671875 84.6875 C18.26733237 99.02360916 6.75524195 110.30262255 -8 116 C-11.31607188 116.8984645 -14.59330748 117.56285804 -18 118 C-18.33 117.34 -18.66 116.68 -19 116 C-18.34 116 -17.68 116 -17 116 C-16.71898437 115.41089844 -16.43796875 114.82179688 -16.1484375 114.21484375 C-15.09749744 112.18803078 -13.9306735 110.42952995 -12.625 108.5625 C-6.00608213 97.87795602 -4.79099247 86.24724624 -6 74 C-6.92512271 70.38918941 -8.30106312 67.30348838 -10 64 C-10.58333333 62.5 -11.16666667 61 -11.75 59.5 C-17.36733886 47.2025825 -27.52932273 38.93117942 -39.9375 34.0625 C-58.50908544 27.40561336 -76.49879201 31.17242989 -93.87890625 39.35546875 C-106.60172649 45.80811161 -118.41282129 54.34370989 -129.84765625 62.83203125 C-136.21105576 67.49440051 -141.8471006 70.36240877 -149.515625 72.34375 C-151.92505699 72.7573674 -151.92505699 72.7573674 -153 74 C-158.86060381 74.61850663 -164.49495866 74.81308853 -169.49609375 71.390625 C-173.66033046 67.54005807 -175.71549366 63.62944543 -176.6875 58.0625 C-176.14421114 51.42661468 -172.09555866 46.84672981 -167.26953125 42.59375 C-160.51553696 37.29123523 -153.42313478 32.44805415 -146.29345703 27.66650391 C-145.64747559 27.23128418 -145.00149414 26.79606445 -144.3359375 26.34765625 C-143.76407715 25.96617432 -143.1922168 25.58469238 -142.60302734 25.19165039 C-140.92466211 24.01524784 -140.92466211 24.01524784 -139.43383789 22.34863281 C-138.96067139 21.90358398 -138.48750488 21.45853516 -138 21 C-135.72265625 21.07421875 -135.72265625 21.07421875 -133.0625 21.6875 C-132.08410156 21.89503906 -131.10570312 22.10257813 -130.09765625 22.31640625 C-129.07542969 22.54199219 -128.05320313 22.76757812 -127 23 C-113.84554674 25.58299407 -99.24633683 27.10010051 -86.99609375 20.37109375 C-83.70084871 18.10762798 -80.88062631 15.35373106 -77.95703125 12.63671875 C-68.28921394 4.01614188 -58.2088495 -3.44927446 -46 -8 C-45.31035156 -8.26296875 -44.62070313 -8.5259375 -43.91015625 -8.796875 C-29.24813335 -13.38456927 -11.99989603 -9.05617153 0 0 Z " fill="#A5A793" transform="translate(290,80)"/>
<path d="M0 0 C1.18078125 0.35835938 2.3615625 0.71671875 3.578125 1.0859375 C4.78984375 1.51132813 6.0015625 1.93671875 7.25 2.375 C8.47203125 2.79523438 9.6940625 3.21546875 10.953125 3.6484375 C14 5 14 5 16 8 C10.62731803 12.2924602 5.13659703 16.41168347 -0.4375 20.4375 C-1.36006592 21.11111572 -1.36006592 21.11111572 -2.30126953 21.79833984 C-6.76573094 25 -6.76573094 25 -9 25 C-9 25.66 -9 26.32 -9 27 C-10.64429829 28.68873879 -12.31384218 30.35305515 -14 32 C-18.69444037 37.53273329 -18.46834799 43.44926459 -18.40234375 50.51171875 C-17.8019331 55.71722083 -15.90500171 58.60363297 -12 62 C-3.99216444 67.9020714 2.02765658 68.7189125 12 68 C31.04546229 64.06283096 47.81128802 50.08207842 63.46826172 39.30029297 C68.03584563 36.18412727 72.58590108 33.52400015 77.625 31.25 C78.24117188 30.95996094 78.85734375 30.66992188 79.4921875 30.37109375 C87.53800485 26.66934165 94.50048624 25.61365265 103.25 25.625 C104.27037354 25.62371094 105.29074707 25.62242188 106.34204102 25.62109375 C113.59547997 25.72319767 119.54475326 26.46460814 126 30 C126 30.66 126 31.32 126 32 C126.58136719 32.1134375 127.16273438 32.226875 127.76171875 32.34375 C136.69743834 34.96364684 143.05369804 44.15850749 147.3125 51.9375 C151.68202661 61.46419322 152.8470561 73.67314707 149.875 83.75 C145.27887952 95.54381859 136.70110207 102.73500193 126.16015625 109.11328125 C120.80715102 111.31062698 115.1261127 111.06952633 109.4375 110.9375 C92.52506313 110.79009352 78.76181415 114.70027704 64.36328125 123.64453125 C62 125 62 125 60 125 C60 123.02 60 121.04 60 119 C60.66 119 61.32 119 62 119 C62.061875 118.443125 62.12375 117.88625 62.1875 117.3125 C64.61672256 110.39855888 73.17958179 105.85874547 79.46484375 102.80078125 C84.84018721 100.62639419 89.94266273 99.71757919 95.6875 99.1875 C105.33824374 98.21132218 115.56367908 95.5324641 122.5234375 88.421875 C127.32512454 81.71911187 128.70309545 76.16869072 128 68 C125.30801959 60.63247467 119.63270694 54.25695979 112.5625 50.8125 C99.37012423 46.62955158 87.48838757 49.29074137 75.34765625 55.31640625 C66.59380839 60.29630997 58.79172074 66.92211088 50.98828125 73.25390625 C34.77384414 86.24430994 18.30739619 95.029523 -3 93 C-15.48614866 90.675377 -26.64226642 84.54848594 -35 75 C-35.886875 74.13375 -36.77375 73.2675 -37.6875 72.375 C-44.76192972 63.4733997 -45.08851005 50.81706864 -44 40 C-40.46466004 23.87001142 -26.08538321 12.30087599 -13.1875 3.3125 C-12.56544678 2.86575928 -11.94339355 2.41901855 -11.30249023 1.95874023 C-7.09869211 -0.85712294 -4.82860821 -1.47558248 0 0 Z " fill="#A4A793" transform="translate(126,92)"/>
<path d="M0 0 C1.63921362 0.8462804 3.28411851 1.68174487 4.9375 2.5 C17.01312523 9.38056658 23.45756108 19.1763455 28 32 C31.48294458 45.12634737 29.15313658 58.53235252 22.75 70.1875 C14.90432062 82.96521434 2.03179813 91.1281155 -10.328125 99.171875 C-12.74723703 100.82705692 -14.93177205 102.56053397 -17.125 104.5 C-20 107 -20 107 -22 107 C-22.268125 107.556875 -22.53625 108.11375 -22.8125 108.6875 C-24 111 -24 111 -25.625 113.25 C-27.45659261 116.91318521 -27.77253252 120.0353048 -27 124 C-25.22923393 128.23773077 -23.0275361 131.21711535 -19.375 134 C-10.41276247 136.65547779 -3.24726632 134.86011947 5 131 C6.134375 130.5875 7.26875 130.175 8.4375 129.75 C12.6989297 127.65666611 16.25748649 125.00684251 20.0546875 122.171875 C24.91070305 118.59104656 29.95168279 115.30153751 35 112 C35.58249512 111.61634277 36.16499023 111.23268555 36.76513672 110.83740234 C50.2563044 101.96001906 50.2563044 101.96001906 57 99 C57.92296875 98.57976562 58.8459375 98.15953125 59.796875 97.7265625 C73.58454025 91.67258766 91.23844854 88.56065023 105.8203125 94.03515625 C106.53960937 94.35355469 107.25890625 94.67195313 108 95 C108.80179688 95.32871094 109.60359375 95.65742187 110.4296875 95.99609375 C122.49914694 101.42923048 132.92384345 110.75260008 138.30859375 122.96875 C139.28430427 125.62782922 140.15009185 128.29880677 141 131 C141.35578125 131.76570312 141.7115625 132.53140625 142.078125 133.3203125 C145.51910796 143.32249177 143.37016083 156.69467075 139 166 C135.88743493 171.3385384 132.37573328 176.62426672 128 181 C127.67 180.34 127.34 179.68 127 179 C125.02 179.99 125.02 179.99 123 181 C123 181.66 123 182.32 123 183 C120.64561267 184.42944945 119.51967567 185.08661261 116.75 184.625 C116.1725 184.41875 115.595 184.2125 115 184 C115.66 183.01 116.32 182.02 117 181 C117 180.01 117 179.02 117 178 C120.33333333 175 120.33333333 175 123 175 C123.40412109 174.13955078 123.40412109 174.13955078 123.81640625 173.26171875 C125.0267408 170.94890124 126.41906892 168.93366709 127.9375 166.8125 C134.26975323 157.29089673 135.15434862 148.19483524 133.56640625 136.921875 C131.18671704 125.62943678 125.58869587 115.62491715 116 109 C114.02062756 107.83170799 112.12063309 106.90126906 110 106 C110 105.34 110 104.68 110 104 C109.2265625 103.814375 109.2265625 103.814375 108.4375 103.625 C106 103 106 103 103.046875 101.984375 C91.09398063 98.57992206 75.0696871 99.53113472 64 105 C63.35369629 105.31146973 62.70739258 105.62293945 62.04150391 105.94384766 C53.79641268 109.95482108 46.10226984 114.34563183 38.7890625 119.90234375 C22.32256101 132.28681336 3.54624383 145.64602994 -18 143 C-25.89636557 140.41385407 -30.53398235 134.69902648 -35 128 C-35.92849623 118.40151954 -35.4178255 111.22368622 -29.4375 103.5625 C-28.2309375 102.2940625 -28.2309375 102.2940625 -27 101 C-26.34 101 -25.68 101 -25 101 C-25 100.34 -25 99.68 -25 99 C-23.65820312 97.85839844 -23.65820312 97.85839844 -21.78125 96.609375 C-21.09933594 96.14974365 -20.41742188 95.6901123 -19.71484375 95.21655273 C-18.98394531 94.73259033 -18.25304687 94.24862793 -17.5 93.75 C-16.03053865 92.75756287 -14.56178098 91.76408299 -13.09375 90.76953125 C-12.38605469 90.29209473 -11.67835938 89.8146582 -10.94921875 89.32275391 C-7.52213134 86.99710766 -4.21480629 84.61203011 -1 82 C-1 81.34 -1 80.68 -1 80 C-0.319375 79.608125 0.36125 79.21625 1.0625 78.8125 C9.98205053 73.30894755 15.05786046 64.96675744 17.8515625 54.9453125 C20.14879478 43.15285347 18.67214734 32.73199195 12.44921875 22.43359375 C5.56911145 12.78376445 -5.56609945 6.75050093 -17 4 C-17.75023437 3.81824219 -18.50046875 3.63648438 -19.2734375 3.44921875 C-32.47018833 1.27496897 -45.83357042 2.91864537 -57.2578125 10.01171875 C-59 11 -59 11 -61 11 C-61 10.34 -61 9.68 -61 9 C-62.175625 10.2375 -62.175625 10.2375 -63.375 11.5 C-66 14 -66 14 -68 14 C-68.268125 14.61875 -68.53625 15.2375 -68.8125 15.875 C-70 18 -70 18 -73 20 C-73.33 20.99 -73.66 21.98 -74 23 C-74.66 22.34 -75.32 21.68 -76 21 C-75.7319414 16.83478181 -74.29045768 14.81441095 -71.4375 11.875 C-68.4454016 8.99975651 -68.4454016 8.99975651 -68 5 C-49.11881096 -11.64341849 -20.82068854 -13.80276989 0 0 Z " fill="#626657" transform="translate(142,18)"/>
<path d="M0 0 C0.99 0.33 1.98 0.66 3 1 C2.50628906 1.51949219 2.01257813 2.03898437 1.50390625 2.57421875 C0.54291016 3.62029297 0.54291016 3.62029297 -0.4375 4.6875 C-1.07558594 5.37199219 -1.71367188 6.05648438 -2.37109375 6.76171875 C-4.16221098 9.22289422 -4.62798558 11.00816574 -5 14 C-3.84188612 12.94729537 -3.84188612 12.94729537 -3 11 C-1.66666667 10.33333333 -0.33333333 9.66666667 1 9 C1.33 8.34 1.66 7.68 2 7 C2.66 7 3.32 7 4 7 C4.268125 6.360625 4.53625 5.72125 4.8125 5.0625 C6 3 6 3 9 2 C8.43715981 5.77186936 6.88619468 7.32892871 4.1875 9.9375 C-0.60573789 15.14528819 -3.07215006 20.97744949 -4 28 C-3.10707657 31.21005974 -2.7290583 32.54969929 0.125 34.3125 C8.56504576 36.33077181 16.1206441 34.33319436 24 31 C29.72462087 27.40698592 33.00731829 22.63057883 36.5859375 17.0234375 C39.17613484 13.31702253 41.80604953 11.39003564 46.28515625 10.59375 C52.95846421 10.18118073 57.74398916 11.94239738 63 16 C68.36436415 20.85654999 72.59670638 25.56595422 73 33 C73.16021029 40.70153744 71.76052474 46.8552092 67 53 C64.17984563 55.91883381 61.19356558 58.49921849 58 61 C57.40316406 61.46921875 56.80632812 61.9384375 56.19140625 62.421875 C54.625 63.5625 54.625 63.5625 52 65 C50.515 64.505 50.515 64.505 49 64 C50.32 63.34 51.64 62.68 53 62 C53 61.34 53 60.68 53 60 C55.5 58.375 55.5 58.375 58 57 C57.34 56.01 56.68 55.02 56 54 C55.23816406 54.58007812 55.23816406 54.58007812 54.4609375 55.171875 C50.38668017 58.25427193 46.28352069 61.21571155 42 64 C41.34 63.67 40.68 63.34 40 63 C43.94417162 58.81879884 48.47233747 55.66050744 53.125 52.31640625 C57.62158745 48.69347642 61.56216189 44.49701866 62.30078125 38.59765625 C62.33155158 31.94100727 61.41876573 28.71194945 56.9375 23.6875 C52.6812992 21.24244848 48.79840605 21.66457744 44 22 C43.835 22.804375 43.67 23.60875 43.5 24.4375 C39.82457786 33.16662759 33.40514203 37.86147 25.02734375 41.80859375 C18.56537896 44.35168957 13.05476002 45.30066387 6.1875 45.1875 C5.42501953 45.18685547 4.66253906 45.18621094 3.87695312 45.18554688 C-1.7179498 45.1410251 -1.7179498 45.1410251 -4 44 C-4.226875 44.7425 -4.45375 45.485 -4.6875 46.25 C-6.2589561 49.5425747 -7.99995716 50.97497109 -11 53 C-11.66 53 -12.32 53 -13 53 C-13.2475 53.886875 -13.495 54.77375 -13.75 55.6875 C-15.07435898 59.19705131 -16.31115465 61.3879788 -19 64 C-21.75 64.3125 -21.75 64.3125 -24 64 C-24.625 61.6875 -24.625 61.6875 -25 59 C-24.34 58.01 -23.68 57.02 -23 56 C-25.31 55.34 -27.62 54.68 -30 54 C-29.625 51.5625 -29.625 51.5625 -29 49 C-26.7440731 47.87203655 -25.19174245 47.80177006 -22.6875 47.625 C-18.74765093 47.23861609 -16.28630473 46.29045481 -13 44 C-12.34 44 -11.68 44 -11 44 C-10.22197813 41.6984589 -10.22197813 41.6984589 -10 39 C-10.46921875 38.37480469 -10.9384375 37.74960937 -11.421875 37.10546875 C-14.19776785 33.40198794 -14.19368565 29.52134936 -14 25 C-12.00970485 14.61314718 -7.71382458 7.12045346 0 0 Z " fill="#616557" transform="translate(72,25)"/>
<path d="M0 0 C0.495 1.485 0.495 1.485 1 3 C-11.89468087 13.75172531 -26.73764215 16.51032324 -42.86767578 19.13964844 C-56.55839858 21.38713801 -56.55839858 21.38713801 -67 30 C-68.02114255 33.26765616 -68.21876731 35.1965959 -67.3203125 38.49609375 C-65.66211671 41.64077867 -64.06749089 42.44571334 -60.9375 44.0625 C-56.22535938 46.50307785 -56.22535938 46.50307785 -55.06640625 49.05859375 C-55.04449219 49.69925781 -55.02257812 50.33992188 -55 51 C-57 53 -57 53 -60.8125 53.4375 C-68.33010961 53.26719816 -76.5028307 50.24348908 -82.5 45.6875 C-88.17663393 39.58511852 -91.13941179 34.03081842 -91.1875 25.625 C-91.20167969 24.50351563 -91.21585938 23.38203125 -91.23046875 22.2265625 C-91.00365368 19.05115158 -90.35390668 16.85765282 -89 14 C-88.87625 14.639375 -88.7525 15.27875 -88.625 15.9375 C-88.315625 16.9584375 -88.315625 16.9584375 -88 18 C-87.34 18.33 -86.68 18.66 -86 19 C-86.66 19.99 -87.32 20.98 -88 22 C-87.67 22.99 -87.34 23.98 -87 25 C-86.83564453 23.95199219 -86.83564453 23.95199219 -86.66796875 22.8828125 C-86.50941406 21.97273438 -86.35085937 21.06265625 -86.1875 20.125 C-86.03667969 19.22007812 -85.88585937 18.31515625 -85.73046875 17.3828125 C-85 15 -85 15 -82 13 C-82.03480469 13.99 -82.06960937 14.98 -82.10546875 16 C-82.28134511 23.23932767 -82.25255905 29.35935862 -79 36 C-78.78085938 35.28714844 -78.56171875 34.57429688 -78.3359375 33.83984375 C-75.54307102 25.40447873 -72.53816449 19.70722726 -64.625 15.3125 C-53.73553141 10.34794407 -41.51997124 8.63364524 -29.8046875 6.65234375 C-22.12918776 5.52905355 -22.12918776 5.52905355 -14.91015625 2.91796875 C-13 2 -13 2 -10.75 2.375 C-10.1725 2.58125 -9.595 2.7875 -9 3 C-9.66 3.99 -10.32 4.98 -11 6 C-7.535 5.505 -7.535 5.505 -4 5 C-4 4.34 -4 3.68 -4 3 C-2 1.375 -2 1.375 0 0 Z " fill="#636559" transform="translate(269,196)"/>
<path d="M0 0 C1.04285156 0.69222656 2.08570313 1.38445313 3.16015625 2.09765625 C4.90281556 3.02820249 6.65172387 3.94727113 8.41015625 4.84765625 C11.45908112 6.56741311 13.86766085 8.406466 16.16015625 11.09765625 C15.50015625 11.09765625 14.84015625 11.09765625 14.16015625 11.09765625 C14.65515625 12.58265625 14.65515625 12.58265625 15.16015625 14.09765625 C16.64515625 14.59265625 16.64515625 14.59265625 18.16015625 15.09765625 C18.16015625 15.75765625 18.16015625 16.41765625 18.16015625 17.09765625 C18.82015625 17.09765625 19.48015625 17.09765625 20.16015625 17.09765625 C23.32461897 21.24588976 25.94654431 25.38876073 26.59765625 30.59765625 C26.16015625 33.09765625 26.16015625 33.09765625 25.16015625 35.09765625 C24.50015625 35.09765625 23.84015625 35.09765625 23.16015625 35.09765625 C22.93328125 34.25203125 22.70640625 33.40640625 22.47265625 32.53515625 C21.12529064 29.00634156 19.48178022 26.56239915 17.18359375 23.61328125 C16.16015625 22.09765625 16.16015625 22.09765625 16.16015625 20.09765625 C14.67515625 19.60265625 14.67515625 19.60265625 13.16015625 19.09765625 C12.66515625 17.61265625 12.66515625 17.61265625 12.16015625 16.09765625 C4.8325528 10.60507445 -2.99061703 6.3984552 -11.83984375 4.09765625 C-11.83984375 4.75765625 -11.83984375 5.41765625 -11.83984375 6.09765625 C-12.83628906 5.9378125 -13.83273438 5.77796875 -14.859375 5.61328125 C-28.63499113 3.66164912 -42.09913086 4.65974111 -54.09765625 12.109375 C-55.83984375 13.09765625 -55.83984375 13.09765625 -57.83984375 13.09765625 C-57.83984375 12.43765625 -57.83984375 11.77765625 -57.83984375 11.09765625 C-59.01546875 12.33515625 -59.01546875 12.33515625 -60.21484375 13.59765625 C-62.83984375 16.09765625 -62.83984375 16.09765625 -64.83984375 16.09765625 C-65.10796875 16.71640625 -65.37609375 17.33515625 -65.65234375 17.97265625 C-66.83984375 20.09765625 -66.83984375 20.09765625 -69.83984375 22.09765625 C-70.16984375 23.08765625 -70.49984375 24.07765625 -70.83984375 25.09765625 C-71.49984375 24.43765625 -72.15984375 23.77765625 -72.83984375 23.09765625 C-72.57178515 18.93243806 -71.13030143 16.9120672 -68.27734375 13.97265625 C-65.28524535 11.09741276 -65.28524535 11.09741276 -64.83984375 7.09765625 C-47.66280779 -8.04358285 -19.76652461 -12.39776081 0 0 Z " fill="#626556" transform="translate(138.83984375,15.90234375)"/>
<path d="M0 0 C4.455 0.99 4.455 0.99 9 2 C9 2.66 9 3.32 9 4 C9.87011719 4.25910156 10.74023438 4.51820312 11.63671875 4.78515625 C15.03381889 6.01221565 17.77022204 7.50226162 20.8125 9.4375 C21.76769531 10.03433594 22.72289062 10.63117187 23.70703125 11.24609375 C26 13 26 13 27 16 C27.5775 16.556875 28.155 17.11375 28.75 17.6875 C32.87567028 21.92777223 36 25.99064781 36 32 C36.66 32 37.32 32 38 32 C38.55246175 25.81242837 37.71599916 22.71508772 34.09375 17.6640625 C33 16 33 16 33 14 C32.34 14 31.68 14 31 14 C31 13.34 31 12.68 31 12 C29.68 12 28.36 12 27 12 C26.67 10.35 26.34 8.7 26 7 C32.39459431 9.06492108 35.39969054 13.53771232 39 19 C45.06608278 31.0278349 47.45485699 45.06306936 43.9375 58.3125 C40.61764391 67.44600079 35.47438801 75.7668461 28 82 C27.24348145 82.63180176 27.24348145 82.63180176 26.47167969 83.27636719 C24.74533378 84.70291064 23.0022638 86.10543971 21.25 87.5 C20.68265137 87.95842285 20.11530273 88.4168457 19.53076172 88.88916016 C17.890625 90.15625 17.890625 90.15625 15 92 C14.01 91.67 13.02 91.34 12 91 C12.30404678 89.32774271 12.64628502 87.66246041 13 86 C13.2475 84.80375 13.495 83.6075 13.75 82.375 C15.26416626 78.28675109 16.25236911 77.99873648 20 76 C28.83417016 69.0854042 33.42870954 58.91422454 34.81640625 47.94140625 C35.57482272 35.79060623 32.39550323 25.74773418 24.5390625 16.390625 C19.6944059 11.82919448 13.90496049 8.97303115 8 6 C7.11570313 5.54367188 6.23140625 5.08734375 5.3203125 4.6171875 C3.55887993 3.72080011 1.78176974 2.85524947 0 2 C0 1.34 0 0.68 0 0 Z " fill="#606455" transform="translate(126,19)"/>
<path d="M0 0 C1.67542976 0.28604898 3.34385343 0.61781233 5 1 C5.67068075 12.24460488 -1.41640317 22.26039553 -8.5625 30.46875 C-17.60652906 39.86062634 -29.14424366 48.4902195 -42.625 49.1875 C-46 49 -46 49 -48 47 C-47.91210938 44.55200195 -47.91210938 44.55200195 -47 42 C-45.00976562 40.45776367 -45.00976562 40.45776367 -42.40625 39.16796875 C-41.4575 38.67876953 -40.50875 38.18957031 -39.53125 37.68554688 C-38.5309375 37.19119141 -37.530625 36.69683594 -36.5 36.1875 C-25.50906329 30.71395506 -17.22300457 24.51285711 -10.1875 14.375 C-9.73697266 13.7459375 -9.28644531 13.116875 -8.82226562 12.46875 C-6.74057957 9.54772328 -4.71860292 6.5921068 -2.73828125 3.6015625 C-1 1 -1 1 0 0 Z " fill="#A98A74" transform="translate(313,175)"/>
<path d="M0 0 C2.4375 1.25 2.4375 1.25 3.4375 4.25 C3.55029426 5.74740486 3.61523143 7.24872014 3.6484375 8.75 C3.67679688 9.63816406 3.70515625 10.52632812 3.734375 11.44140625 C3.78558407 13.28237217 3.83009647 15.12353928 3.8671875 16.96484375 C4.29489344 29.38613717 8.64568963 39.41017151 14.02929688 50.43945312 C18.10841254 59.04824952 18.10841254 59.04824952 17.4375 64.25 C15.640625 64.87890625 15.640625 64.87890625 13.4375 65.25 C1.91445924 57.93730106 -3.16606602 42.84450197 -6.5625 30.25 C-7.580224 25.42067274 -7.77773264 20.72773498 -7.8125 15.8125 C-7.833125 15.08740234 -7.85375 14.36230469 -7.875 13.61523438 C-7.91225685 8.43187552 -7.00461048 4.84377578 -4.5625 0.25 C-2.5625 -0.75 -2.5625 -0.75 0 0 Z " fill="#786E5F" transform="translate(21.5625,147.75)"/>
<path d="M0 0 C2.8805515 2.46904414 3.98166827 4.25750482 5.1875 7.875 C5.45443785 13.83305278 4.18686023 18.32017307 0.1875 22.875 C-3.39730101 25.16528953 -6.63305988 25.14126722 -10.8125 24.4921875 C-14.28933513 23.41925791 -16.25573921 21.43176079 -18.8125 18.875 C-20.42516232 15.64967536 -20.2669969 12.37210112 -19.8125 8.875 C-18.4790855 5.20811013 -16.53769045 2.49946955 -13.5625 -0.0625 C-8.82778251 -1.89182266 -4.71322103 -1.88528841 0 0 Z " fill="#A88870" transform="translate(206.8125,31.125)"/>
<path d="M0 0 C0.495 1.485 0.495 1.485 1 3 C-9.37050139 11.64703697 -22.32072458 17.38390876 -36 17 C-34.74458443 14.48916886 -33.49936512 14.12874554 -31 13 C-31.495 12.505 -31.495 12.505 -32 12 C-34.87321336 12.20629732 -37.70344263 12.4797356 -40.5625 12.8125 C-41.34947266 12.89564453 -42.13644531 12.97878906 -42.94726562 13.06445312 C-53.31267496 14.23515476 -64.51556384 16.3224319 -71.5625 24.6875 C-74.60639073 29.17187987 -74.97820562 33.68217125 -75 39 C-75.66 39 -76.32 39 -77 39 C-77.33 39.99 -77.66 40.98 -78 42 C-81.86038714 38.40508361 -84.66601416 34.02642552 -85.25390625 28.69921875 C-85.25052859 26.7975978 -85.1354851 24.89679135 -85 23 C-83 24 -83 24 -82.18359375 26.21484375 C-81.81427734 27.56255859 -81.81427734 27.56255859 -81.4375 28.9375 C-80.450487 32.55797321 -80.450487 32.55797321 -79 36 C-78.78085938 35.28714844 -78.56171875 34.57429688 -78.3359375 33.83984375 C-75.54307102 25.40447873 -72.53816449 19.70722726 -64.625 15.3125 C-53.73553141 10.34794407 -41.51997124 8.63364524 -29.8046875 6.65234375 C-22.12918776 5.52905355 -22.12918776 5.52905355 -14.91015625 2.91796875 C-13 2 -13 2 -10.75 2.375 C-10.1725 2.58125 -9.595 2.7875 -9 3 C-9.66 3.99 -10.32 4.98 -11 6 C-7.535 5.505 -7.535 5.505 -4 5 C-4 4.34 -4 3.68 -4 3 C-2 1.375 -2 1.375 0 0 Z " fill="#59584C" transform="translate(269,196)"/>
<path d="M0 0 C0.70125 0.268125 1.4025 0.53625 2.125 0.8125 C2.875 2.875 2.875 2.875 3.125 5.8125 C0.49890059 11.43052361 -2.40669202 14.55801641 -7.5 18 C-8.11810547 18.42780762 -8.73621094 18.85561523 -9.37304688 19.29638672 C-15.75410406 23.59616126 -22.88844111 28.01048383 -30.875 26.8125 C-31.535 26.1525 -32.195 25.4925 -32.875 24.8125 C-32.73046875 22.8515625 -32.73046875 22.8515625 -31.875 20.8125 C-30.30078125 19.4609375 -30.30078125 19.4609375 -28.1875 18.1875 C-23.92040994 15.50005386 -19.78878197 12.68127268 -15.6875 9.75 C-14.81508667 9.13294189 -14.81508667 9.13294189 -13.92504883 8.50341797 C-11.03901101 6.44377865 -8.2949737 4.33135406 -5.62890625 1.9921875 C-2.875 -0.1875 -2.875 -0.1875 0 0 Z " fill="#A7856E" transform="translate(314.875,209.1875)"/>
<path d="M0 0 C4.455 0.99 4.455 0.99 9 2 C9 2.66 9 3.32 9 4 C9.87011719 4.25910156 10.74023438 4.51820312 11.63671875 4.78515625 C15.03381889 6.01221565 17.77022204 7.50226162 20.8125 9.4375 C21.76769531 10.03433594 22.72289062 10.63117187 23.70703125 11.24609375 C26 13 26 13 27 16 C27.5775 16.556875 28.155 17.11375 28.75 17.6875 C32.87567028 21.92777223 36 25.99064781 36 32 C36.66 32 37.32 32 38 32 C38.55246175 25.81242837 37.71599916 22.71508772 34.09375 17.6640625 C33 16 33 16 33 14 C32.34 14 31.68 14 31 14 C31 13.34 31 12.68 31 12 C29.68 12 28.36 12 27 12 C26.67 10.35 26.34 8.7 26 7 C32.39459431 9.06492108 35.39969054 13.53771232 39 19 C42.62456292 26.18678692 45.12561594 33.03056466 45.1875 41.125 C45.20167969 41.97320312 45.21585938 42.82140625 45.23046875 43.6953125 C45 46 45 46 43 49 C42.505 46.03 42.505 46.03 42 43 C38.70077803 45.19948132 38.57190099 45.50324145 37.8125 49.125 C37.544375 50.40375 37.27625 51.6825 37 53 C36.67 53 36.34 53 36 53 C35.04226919 45.74860957 35.04226919 45.74860957 34.8515625 42.37109375 C34.17675658 31.07612801 30.34407438 21.85626695 22 14 C17.60708859 10.85419475 12.81557138 8.42454522 8 6 C7.11570313 5.54367188 6.23140625 5.08734375 5.3203125 4.6171875 C3.55887993 3.72080011 1.78176974 2.85524947 0 2 C0 1.34 0 0.68 0 0 Z " fill="#585A4C" transform="translate(126,19)"/>
<path d="M0 0 C4.84720175 2.82827551 9.92991261 6.52190288 12.1875 11.75 C13.58264257 17.33057027 13.09227816 22.40207444 12 28 C12.66 27.67 13.32 27.34 14 27 C14.66 27.33 15.32 27.66 16 28 C16 22.06 16 16.12 16 10 C16.99 10.33 17.98 10.66 19 11 C20.49444711 19.62458031 19.45202981 25.45920405 15.3125 33.125 C10.85184429 38.67068008 5.22653204 43.5247263 -1 47 C-1.99 46.67 -2.98 46.34 -4 46 C-2.68 45.34 -1.36 44.68 0 44 C0 43.34 0 42.68 0 42 C2.5 40.375 2.5 40.375 5 39 C4.34 38.01 3.68 37.02 3 36 C2.49210937 36.38671875 1.98421875 36.7734375 1.4609375 37.171875 C-2.61331983 40.25427193 -6.71647931 43.21571155 -11 46 C-11.66 45.67 -12.32 45.34 -13 45 C-9.05582838 40.81879884 -4.52766253 37.66050744 0.125 34.31640625 C4.62158745 30.69347642 8.56216189 26.49701866 9.30078125 20.59765625 C9.33155158 13.94100727 8.41876573 10.71194945 3.9375 5.6875 C-0.3187008 3.24244848 -4.20159395 3.66457744 -9 4 C-9 4.66 -9 5.32 -9 6 C-9.99 6.33 -10.98 6.66 -12 7 C-9.25137618 0.86845455 -7.01126571 -1.03444904 0 0 Z " fill="#5E6154" transform="translate(125,43)"/>
<path d="M0 0 C1.24523437 -0.01998047 2.49046875 -0.03996094 3.7734375 -0.06054688 C10.64365106 -0.05688471 15.54207998 0.05053812 21 4.4375 C21.495 5.9225 21.495 5.9225 22 7.4375 C23.99665314 9.12288601 23.99665314 9.12288601 26 10.4375 C19.125 9.5625 19.125 9.5625 18 8.4375 C15.24680574 8.32396031 12.51967052 8.27331325 9.765625 8.26953125 C8.93544861 8.26620285 8.10527222 8.26287445 7.24993896 8.25944519 C5.48792069 8.25437075 3.72589276 8.25203702 1.96386719 8.25219727 C-0.72477264 8.25002043 -3.41299588 8.2318972 -6.1015625 8.21289062 C-7.8124986 8.20995483 -9.52343664 8.20797128 -11.234375 8.20703125 C-12.03663513 8.19984573 -12.83889526 8.19266022 -13.66546631 8.18525696 C-17.98788066 8.20282004 -20.98485518 8.70527013 -25 10.4375 C-25.99 10.1075 -26.98 9.7775 -28 9.4375 C-27.21625 9.19 -26.4325 8.9425 -25.625 8.6875 C-22.8795416 7.72678975 -22.8795416 7.72678975 -22.125 5.5 C-20.7072152 2.90072787 -19.09111833 2.15378579 -16.39404297 1.0637207 C-11.05189696 -0.33364872 -5.4841061 -0.03122421 0 0 Z " fill="#B0AD97" transform="translate(112,9.5625)"/>
<path d="M0 0 C3 0.125 3 0.125 4 1.125 C4.04063832 2.79117115 4.042721 4.45888095 4 6.125 C-6.85375634 10.5821852 -16.23462544 13.50452821 -28 13.125 C-28 12.795 -28 12.465 -28 12.125 C-32.95 11.795 -37.9 11.465 -43 11.125 C-43 8.125 -43 8.125 -41 6.125 C-37.96308775 5.91596966 -34.97755672 5.80406047 -31.9375 5.75 C-20.93698379 5.39839901 -10.17412692 0.42392196 0 0 Z " fill="#656A5A" transform="translate(155,219.875)"/>
<path d="M0 0 C3.33484448 2.46488505 4.81126715 3.86760291 5.5 8 C4.94048091 11.35711455 4.03538069 13.28615908 2 16 C-1.69030725 18.46020483 -4.71777836 18.79823937 -9 18 C-12.0625 15.9375 -12.0625 15.9375 -14 13 C-14.16246833 8.45088668 -13.5128526 6.60490307 -10.5625 3.125 C-6.86448577 0.05835405 -4.81734916 -0.56674696 0 0 Z " fill="#7D7262" transform="translate(236,28)"/>
<path d="M0 0 C2.5625 -0.5625 2.5625 -0.5625 6 0 C8.78091007 2.68943277 10.85781728 5.79170774 13 9 C13.51304688 9.72703125 14.02609375 10.4540625 14.5546875 11.203125 C18.81616754 17.51107851 18.81616754 17.51107851 18 22 C17 23 17 23 13.9375 23.0625 C8.51564224 22.2128893 5.32280264 18.06369782 2 14 C-0.66231979 9.84012533 -1.44778332 6.92561655 -1 2 C-0.67 1.34 -0.34 0.68 0 0 Z " fill="#807566" transform="translate(9,199)"/>
<path d="M0 0 C2.48615744 2.58974733 2.98895202 3.84532826 3.25 7.5 C3.05817732 10.18551758 2.81468853 12.45409836 2 15 C0.68 15 -0.64 15 -2 15 C-2.16628906 16.05574219 -2.16628906 16.05574219 -2.3359375 17.1328125 C-4.20472783 25.20158955 -8.87201609 34.37820221 -16 39 C-17.32 39 -18.64 39 -20 39 C-20.33 38.34 -20.66 37.68 -21 37 C-19.625 35 -19.625 35 -18 33 C-17.34 33 -16.68 33 -16 33 C-15.73316406 32.4328125 -15.46632812 31.865625 -15.19140625 31.28125 C-13.51289679 28.06731713 -11.41731656 25.18511705 -9.33984375 22.21875 C-8.04576562 20.07578679 -7.38208695 18.46001189 -7 16 C-7.165 15.38125 -7.33 14.7625 -7.5 14.125 C-8.17990599 11.23539953 -7.58857238 8.87746498 -7 6 C-6.34 6.33 -5.68 6.66 -5 7 C-4.9175 6.21625 -4.835 5.4325 -4.75 4.625 C-4 2 -4 2 -1.9375 0.6875 C-0.9784375 0.3471875 -0.9784375 0.3471875 0 0 Z " fill="#626456" transform="translate(168,61)"/>
<path d="M0 0 C2.13588215 1.56500121 2.89155344 2.47828409 3.43359375 5.0859375 C3.44023548 8.97799094 3.23680434 11.51652447 1.5 15.0625 C-1.54207605 17.42010894 -3.32187641 17.67834062 -7.09375 17.41796875 C-9 17 -9 17 -11.5 15.375 C-13.47945017 12.24087057 -13.58503961 10.65649759 -13 7 C-9.36805478 0.58356345 -7.34958831 -0.51576058 0 0 Z " fill="#A88971" transform="translate(201,71)"/>
<path d="M0 0 C0 0.99 0 1.98 0 3 C-1.05058594 3.17015625 -2.10117188 3.3403125 -3.18359375 3.515625 C-18.30174815 5.83044549 -18.30174815 5.83044549 -30 15 C-31.02114255 18.26765616 -31.21876731 20.1965959 -30.3203125 23.49609375 C-28.66211671 26.64077867 -27.06749089 27.44571334 -23.9375 29.0625 C-19.22535938 31.50307785 -19.22535938 31.50307785 -18.06640625 34.05859375 C-18.04449219 34.69925781 -18.02257812 35.33992188 -18 36 C-20 38 -20 38 -23.8125 38.4375 C-31.37536856 38.26617288 -39.59149688 35.23018772 -45.5625 30.5625 C-48.15721608 27.83472156 -50.22909536 25.32930073 -52 22 C-51.59765625 19.81640625 -51.59765625 19.81640625 -51 18 C-50.64808594 18.59167969 -50.29617187 19.18335938 -49.93359375 19.79296875 C-45.77053867 26.4560308 -41.37939644 30.91863912 -34 34 C-31.9257375 34.28480806 -29.83928561 34.48874224 -27.75 34.625 C-26.67234375 34.69976562 -25.5946875 34.77453125 -24.484375 34.8515625 C-23.66453125 34.90054688 -22.8446875 34.94953125 -22 35 C-22 34.34 -22 33.68 -22 33 C-23.051875 32.443125 -24.10375 31.88625 -25.1875 31.3125 C-28.73636325 29.23088571 -31.5743089 27.4111281 -34 24 C-34.46908696 19.55601829 -33.36937132 15.89704464 -31.6875 11.8125 C-24.07107201 3.84181955 -10.93495252 0 0 0 Z " fill="#4F4F43" transform="translate(232,211)"/>
<path d="M0 0 C2.36879593 2.84255511 3 4.34843369 3 8.0625 C1.72268412 11.81461541 0.41639845 13.0260809 -3 15 C-6.0625 15.5625 -6.0625 15.5625 -9 15 C-11.4375 13 -11.4375 13 -13 10 C-13.22634701 6.36430112 -12.77166745 3.13912814 -10.6875 0.0625 C-6.70737402 -2.44350525 -4.12264729 -2.32559591 0 0 Z " fill="#9D7E67" transform="translate(227,58)"/>
<path d="M0 0 C0.495 0.99 0.495 0.99 1 2 C-8.17549626 16.70164741 -20.04138791 28.58231643 -37.08984375 33.6171875 C-40.10163589 34.22077774 -42.94335897 34.16981339 -46 34 C-46.66 33.34 -47.32 32.68 -48 32 C-47.91870117 29.56079102 -47.91870117 29.56079102 -47 27 C-44.9621582 25.39428711 -44.9621582 25.39428711 -42.30078125 24.02734375 C-41.33849609 23.52009766 -40.37621094 23.01285156 -39.38476562 22.49023438 C-38.37091797 21.97783203 -37.35707031 21.46542969 -36.3125 20.9375 C-34.32815709 19.90739068 -32.34504894 18.87489873 -30.36328125 17.83984375 C-29.43209473 17.35628418 -28.5009082 16.87272461 -27.54150391 16.37451172 C-24.54411787 14.75344703 -21.77593396 12.97200079 -19 11 C-21.67510882 17.74788685 -29.13356435 21.62450672 -35.39453125 24.62890625 C-38.24426879 25.81545177 -41.09860803 26.94678965 -44 28 C-44 29.32 -44 30.64 -44 32 C-35.94481456 30.5239189 -29.90214686 28.1315028 -23.1796875 23.42578125 C-21 22 -21 22 -19 22 C-19 21.34 -19 20.68 -19 20 C-17.96875 19.525625 -16.9375 19.05125 -15.875 18.5625 C-11.65012148 16.20582334 -9.67464757 12.92679862 -7.26171875 8.828125 C-6.84535156 8.22484375 -6.42898438 7.6215625 -6 7 C-5.34 7 -4.68 7 -4 7 C-3.71125 6.030625 -3.4225 5.06125 -3.125 4.0625 C-2 1 -2 1 0 0 Z " fill="#8D7160" transform="translate(313,190)"/>
<path d="M0 0 C0.495 1.485 0.495 1.485 1 3 C-9.37050139 11.64703697 -22.32072458 17.38390876 -36 17 C-34.74458443 14.48916886 -33.49936512 14.12874554 -31 13 C-31.33 12.01 -31.66 11.02 -32 10 C-27.71 9.01 -23.42 8.02 -19 7 C-19 6.34 -19 5.68 -19 5 C-13.58461538 1.92307692 -13.58461538 1.92307692 -10.625 2.3125 C-10.08875 2.539375 -9.5525 2.76625 -9 3 C-9.99 4.485 -9.99 4.485 -11 6 C-7.535 5.505 -7.535 5.505 -4 5 C-4 4.34 -4 3.68 -4 3 C-2 1.375 -2 1.375 0 0 Z " fill="#616457" transform="translate(269,196)"/>
<path d="M0 0 C2.4375 1.25 2.4375 1.25 3.4375 4.25 C3.55029426 5.74740486 3.61523143 7.24872014 3.6484375 8.75 C3.67679688 9.63816406 3.70515625 10.52632812 3.734375 11.44140625 C3.78558407 13.28237217 3.83009647 15.12353928 3.8671875 16.96484375 C4.29489344 29.38613717 8.64568963 39.41017151 14.02929688 50.43945312 C18.10841254 59.04824952 18.10841254 59.04824952 17.4375 64.25 C15.8125 65.0625 15.8125 65.0625 13.4375 65.25 C11.19140165 63.78181864 9.41371323 62.09147142 7.4375 60.25 C8.9225 59.755 8.9225 59.755 10.4375 59.25 C11.0975 60.57 11.7575 61.89 12.4375 63.25 C13.4275 63.25 14.4175 63.25 15.4375 63.25 C14.18293222 58.00362563 12.18845698 53.57078121 9.73046875 48.77734375 C7.79467367 44.99347845 6.0227806 41.19417812 4.4375 37.25 C4.07398438 36.36570313 3.71046875 35.48140625 3.3359375 34.5703125 C-0.45650862 24.06605525 -0.38974521 13.31077458 -0.5625 2.25 C-2.68614481 2.02390663 -2.68614481 2.02390663 -4.1875 3.75 C-4.64125 4.245 -5.095 4.74 -5.5625 5.25 C-5.1875 2.8125 -5.1875 2.8125 -4.5625 0.25 C-2.5625 -0.75 -2.5625 -0.75 0 0 Z " fill="#63584B" transform="translate(21.5625,147.75)"/>
<path d="M0 0 C0.495 1.485 0.495 1.485 1 3 C-5.82079416 9.96122228 -15.01510939 15.47894705 -24.98291016 16.12939453 C-25.66144043 16.13052246 -26.3399707 16.13165039 -27.0390625 16.1328125 C-28.15667969 16.13474609 -28.15667969 16.13474609 -29.296875 16.13671875 C-30.06515625 16.13285156 -30.8334375 16.12898438 -31.625 16.125 C-32.40101562 16.12886719 -33.17703125 16.13273437 -33.9765625 16.13671875 C-39.74659734 16.12670133 -39.74659734 16.12670133 -42 15 C-42.226875 15.7425 -42.45375 16.485 -42.6875 17.25 C-44.2589561 20.5425747 -45.99995716 21.97497109 -49 24 C-49.66 24 -50.32 24 -51 24 C-51.2475 24.886875 -51.495 25.77375 -51.75 26.6875 C-53.07435898 30.19705131 -54.31115465 32.3879788 -57 35 C-59.75 35.3125 -59.75 35.3125 -62 35 C-62.625 32.6875 -62.625 32.6875 -63 30 C-62.01 28.515 -62.01 28.515 -61 27 C-60.01 27.33 -59.02 27.66 -58 28 C-59.485 30.475 -59.485 30.475 -61 33 C-57.30672803 31.30309126 -56.16412323 30.39246858 -54.5625 26.5625 C-52.70897859 22.33647118 -50.8467228 21.37350981 -47 19 C-45.61131484 16.89960669 -45.61131484 16.89960669 -45 15 C-44.34 15 -43.68 15 -43 15 C-42.67 14.01 -42.34 13.02 -42 12 C-41.01 12.33 -40.02 12.66 -39 13 C-30.82207224 13.50989478 -22.46359575 13.88320734 -15 10 C-14.34 9.34 -13.68 8.68 -13 8 C-11.9275 7.7525 -10.855 7.505 -9.75 7.25 C-5.02767816 5.67589272 -3.27408268 3.67336106 0 0 Z " fill="#414137" transform="translate(110,54)"/>
<path d="M0 0 C4.68271918 1.88749604 8.54730801 4.30919132 12 8 C11.67 8.99 11.34 9.98 11 11 C10.36384766 10.38511719 10.36384766 10.38511719 9.71484375 9.7578125 C5.16761861 5.58036172 1.35993072 3.1333822 -5.04296875 2.9375 C-8.66661978 3.15505503 -10.8103723 3.85447177 -13.6875 6.0625 C-16.04698252 9.0596805 -18.00661191 12.11262881 -19.88671875 15.42578125 C-20.25410156 15.94527344 -20.62148437 16.46476562 -21 17 C-21.66 17 -22.32 17 -23 17 C-23 17.66 -23 18.32 -23 19 C-24.6796875 20.21875 -24.6796875 20.21875 -26.875 21.5 C-29.25362486 22.89818809 -31.03792084 24.03792084 -33 26 C-35.96592607 26.5627735 -38.98744426 26.60543463 -42 26.75 C-43.24910156 26.83314453 -43.24910156 26.83314453 -44.5234375 26.91796875 C-45.32007812 26.96050781 -46.11671875 27.00304687 -46.9375 27.046875 C-47.66839844 27.08651367 -48.39929688 27.12615234 -49.15234375 27.16699219 C-51 27 -51 27 -53 25 C-51.53240234 24.85304688 -51.53240234 24.85304688 -50.03515625 24.703125 C-39.03410914 23.44833497 -29.72524847 21.49030931 -22 13 C-20.94766273 11.4796635 -19.9273655 9.9367308 -18.9375 8.375 C-14.13290176 0.89697701 -8.75719217 -1.55157459 0 0 Z " fill="#57574B" transform="translate(126,36)"/>
<path d="M0 0 C0.33 0.99 0.66 1.98 1 3 C0.01 3.66 -0.98 4.32 -2 5 C-1.34 5.33 -0.68 5.66 0 6 C0 6.99 0 7.98 0 9 C-1.32 9 -2.64 9 -4 9 C-4 9.66 -4 10.32 -4 11 C-4.99 11.495 -4.99 11.495 -6 12 C-6 12.99 -6 13.98 -6 15 C-6.66 15 -7.32 15 -8 15 C-8 14.34 -8 13.68 -8 13 C-9.175625 14.2375 -9.175625 14.2375 -10.375 15.5 C-13 18 -13 18 -15 18 C-15.268125 18.61875 -15.53625 19.2375 -15.8125 19.875 C-17 22 -17 22 -20 24 C-20.33 24.99 -20.66 25.98 -21 27 C-21.66 26.34 -22.32 25.68 -23 25 C-22.7319414 20.83478181 -21.29045768 18.81441095 -18.4375 15.875 C-15.4454016 12.99975651 -15.4454016 12.99975651 -15 9 C-13.2421875 7.5 -13.2421875 7.5 -10.875 6 C-10.05902344 5.48179688 -9.24304688 4.96359375 -8.40234375 4.4296875 C-5.65325181 2.79364254 -2.9035391 1.34009497 0 0 Z " fill="#636758" transform="translate(89,14)"/>
<path d="M0 0 C0.66 0.33 1.32 0.66 2 1 C2 2.66666667 2 4.33333333 2 6 C-1.33333333 9 -1.33333333 9 -4 9 C-4.268125 10.093125 -4.53625 11.18625 -4.8125 12.3125 C-6.39583333 17.22916667 -6.39583333 17.22916667 -9 19 C-9.99 19 -10.98 19 -12 19 C-11.34 17.35 -10.68 15.7 -10 14 C-12.97 13.01 -15.94 12.02 -19 11 C-18.625 8.5625 -18.625 8.5625 -18 6 C-15.75844022 4.87922011 -14.29939141 4.83731274 -11.8125 4.6875 C-6.98181411 4.2278057 -4.09423166 2.50667244 0 0 Z " fill="#5F5F52" transform="translate(61,68)"/>
<path d="M0 0 C4.455 0.99 4.455 0.99 9 2 C9 2.66 9 3.32 9 4 C9.87011719 4.25910156 10.74023438 4.51820312 11.63671875 4.78515625 C15.03381889 6.01221565 17.77022204 7.50226162 20.8125 9.4375 C21.76769531 10.03433594 22.72289062 10.63117187 23.70703125 11.24609375 C26 13 26 13 27 16 C27.5775 16.556875 28.155 17.11375 28.75 17.6875 C33.44911907 22.51715015 36.1794223 27.27126287 37 34 C37.99 34.495 37.99 34.495 39 35 C38.88566637 37.25056722 38.75813564 39.50046674 38.625 41.75 C38.55539063 43.00296875 38.48578125 44.2559375 38.4140625 45.546875 C38.04676696 48.60998121 37.60288714 50.41974266 36 53 C35.04226919 45.74860957 35.04226919 45.74860957 34.8515625 42.37109375 C34.17675658 31.07612801 30.34407438 21.85626695 22 14 C17.60708859 10.85419475 12.81557138 8.42454522 8 6 C7.11570313 5.54367188 6.23140625 5.08734375 5.3203125 4.6171875 C3.55887993 3.72080011 1.78176974 2.85524947 0 2 C0 1.34 0 0.68 0 0 Z " fill="#545547" transform="translate(126,19)"/>
<path d="M0 0 C0.99 0.99 1.98 1.98 3 3 C-0.90859871 10.12233542 -7.34645167 16.08436254 -15 19 C-15.99 19 -16.98 19 -18 19 C-17.67 16.69 -17.34 14.38 -17 12 C-16.34 12 -15.68 12 -15 12 C-15 11.34 -15 10.68 -15 10 C-12.36107824 8.21694476 -10.02821137 7.00940379 -7 6 C-6.71125 5.360625 -6.4225 4.72125 -6.125 4.0625 C-4.60901352 1.28319146 -2.94132727 0.92884019 0 0 Z " fill="#A98B74" transform="translate(314,211)"/>
<path d="M0 0 C1.4375 2.375 1.4375 2.375 2 5 C0.94921715 8.34339998 0.00746531 8.99502312 -3 11 C-6.33598971 11.35489252 -8.35793388 11.32103306 -11.375 9.8125 C-13 8 -13 8 -13.5 5.5625 C-12.84603525 2.21093066 -11.67075552 1.07725429 -9 -1 C-5.52472238 -2.56948021 -3.24742112 -1.88008591 0 0 Z " fill="#8E7563" transform="translate(256,49)"/>
<path d="M0 0 C1.875 1.5625 1.875 1.5625 3 4 C2.77861795 8.20625886 2.34955038 10.47567443 0 14 C-2.74284029 15.3241298 -3.84171783 15.05395983 -6.75 14.0625 C-9 12 -9 12 -9.5625 8.0625 C-9.36484327 5.08117767 -9.03720666 4.05512097 -7.3125 1.5 C-4.5366313 -0.30056348 -3.24185935 -0.66499679 0 0 Z " fill="#6E6657" transform="translate(30,115)"/>
<path d="M0 0 C1.30710938 -0.01417969 2.61421875 -0.02835937 3.9609375 -0.04296875 C7.36298963 0.1710196 9.59183747 0.70605189 12.625 2.1875 C12.625 2.5175 12.625 2.8475 12.625 3.1875 C10.975 3.1875 9.325 3.1875 7.625 3.1875 C7.625 4.5075 7.625 5.8275 7.625 7.1875 C1.025 7.1875 -5.575 7.1875 -12.375 7.1875 C-12.375 6.5275 -12.375 5.8675 -12.375 5.1875 C-13.035 4.8575 -13.695 4.5275 -14.375 4.1875 C-13.385 3.8575 -12.395 3.5275 -11.375 3.1875 C-11.045 2.5275 -10.715 1.8675 -10.375 1.1875 C-6.77617994 -0.01210669 -3.79362018 0.01863271 0 0 Z " fill="#606354" transform="translate(232.375,109.8125)"/>
<path d="M0 0 C-0.8125 1.9375 -0.8125 1.9375 -2 4 C-2.99 4.33 -3.98 4.66 -5 5 C-5.66 5.66 -6.32 6.32 -7 7 C-7 6.01 -7 5.02 -7 4 C-13.67098007 5.61616528 -20.28660914 7.31884883 -26.84375 9.3515625 C-28.88407884 9.96513965 -30.92899452 10.50107595 -33 11 C-33.33 9.68 -33.66 8.36 -34 7 C-27.94771049 3.60173072 -22.73075905 2.12367244 -15.875 1.25 C-15.00746094 1.12496094 -14.13992187 0.99992188 -13.24609375 0.87109375 C-8.79857618 0.25507533 -4.50106123 -0.14757578 0 0 Z " fill="#686A5D" transform="translate(239,207)"/>
<path d="M0 0 C2.625 0.375 2.625 0.375 5 1 C5.34615998 6.65394631 4.43425238 10.03006806 2 15 C0 12 0 12 0 10 C-2.94727535 10.10169161 -2.94727535 10.10169161 -6 11 C-7.16513613 13.19932935 -7.16513613 13.19932935 -8 16 C-10.31234496 19.68681574 -12.86277163 22.98167532 -16 26 C-16.99 25.67 -17.98 25.34 -19 25 C-18.35933594 24.26136719 -17.71867187 23.52273437 -17.05859375 22.76171875 C-11.97837868 16.82889394 -7.42083624 10.89032933 -3.375 4.1796875 C-2 2 -2 2 0 0 Z " fill="#A0836D" transform="translate(313,175)"/>
<path d="M0 0 C2.67151851 2.67151851 2.29873672 4.09182532 2.3125 7.8125 C2.32925781 8.85019531 2.34601563 9.88789063 2.36328125 10.95703125 C1.95025644 14.41666919 1.20516457 16.30701122 -1 19 C-2.32 19 -3.64 19 -5 19 C-5.33 18.34 -5.66 17.68 -6 17 C-6.66 16.67 -7.32 16.34 -8 16 C-7.690625 15.195625 -7.38125 14.39125 -7.0625 13.5625 C-5.81434483 9.37750913 -5.3662304 5.33693899 -5 1 C-4.01 1.33 -3.02 1.66 -2 2 C-1.34 1.34 -0.68 0.68 0 0 Z M-7 19 C-6.34 19.33 -5.68 19.66 -5 20 C-6.98 20.99 -6.98 20.99 -9 22 C-8.34 21.01 -7.68 20.02 -7 19 Z " fill="#5D6151" transform="translate(252,159)"/>
<path d="M0 0 C0.99 0.66 1.98 1.32 3 2 C2.8125 4.875 2.8125 4.875 2 8 C-1.51702502 10.21070144 -4.91560921 10.44395552 -9 10 C-10.875 8.5 -10.875 8.5 -12 7 C-10.55172414 2.4137931 -10.55172414 2.4137931 -8.25 0.6875 C-5.36128356 -0.19516336 -3.00537769 -0.25577682 0 0 Z " fill="#AA8C78" transform="translate(265,233)"/>
<path d="M0 0 C2.5625 -0.5625 2.5625 -0.5625 6 0 C8.78091007 2.68943277 10.85781728 5.79170774 13 9 C13.51304688 9.72703125 14.02609375 10.4540625 14.5546875 11.203125 C18.81616754 17.51107851 18.81616754 17.51107851 18 22 C17 23 17 23 13.9375 23.0625 C8.51564224 22.2128893 5.32280264 18.06369782 2 14 C-0.66231979 9.84012533 -1.44778332 6.92561655 -1 2 C-0.67 1.34 -0.34 0.68 0 0 Z M1 2 C1.279837 8.57616942 3.7885127 12.98494156 8 18 C9.94736428 19.6440502 11.75171865 20.76879831 14 22 C14.66 21.67 15.32 21.34 16 21 C15.60207037 16.62277402 13.83771552 14.10413955 11.26953125 10.70703125 C9.67848366 8.56768418 8.37068044 6.2844674 7 4 C6.34 3.34 5.68 2.68 5 2 C3.68 2 2.36 2 1 2 Z " fill="#655A4D" transform="translate(9,199)"/>
<path d="M0 0 C0 0.66 0 1.32 0 2 C-1.65 2 -3.3 2 -5 2 C-5 2.66 -5 3.32 -5 4 C-5.59167969 4.18175781 -6.18335938 4.36351563 -6.79296875 4.55078125 C-11.24092391 5.96570989 -15.03969135 7.47980358 -19 10 C-19.66 10 -20.32 10 -21 10 C-21 10.66 -21 11.32 -21 12 C-21.99 12.495 -21.99 12.495 -23 13 C-23.2475 13.5775 -23.495 14.155 -23.75 14.75 C-25 17 -25 17 -27.75 19.0625 C-34.30876327 24.25819511 -37.382751 33.29365571 -40 41 C-40.66 41 -41.32 41 -42 41 C-37.8163706 26.82214482 -29.59209154 13.17091632 -16.88671875 4.95703125 C-11.46645255 2.20762086 -6.10604749 0 0 0 Z " fill="#9A9686" transform="translate(83,86)"/>
<path d="M0 0 C0 0.66 0 1.32 0 2 C1.65 2 3.3 2 5 2 C5 2.33 5 2.66 5 3 C0.05745621 3.82269439 -4.53279643 4.05423379 -9.5625 3.9375 C-26.47493687 3.79009352 -40.23818585 7.70027704 -54.63671875 16.64453125 C-57 18 -57 18 -59 18 C-59 16.02 -59 14.04 -59 12 C-58.67 13.32 -58.34 14.64 -58 16 C-57.33484375 15.41347656 -56.6696875 14.82695312 -55.984375 14.22265625 C-52.56041506 11.67261279 -49.16525555 10.08280887 -45.25 8.4375 C-44.5384375 8.13448975 -43.826875 7.83147949 -43.09375 7.51928711 C-35.11924264 4.15867982 -28.73281323 1.70397243 -20 2 C-19.35933594 1.83757812 -18.71867187 1.67515625 -18.05859375 1.5078125 C-15.74649436 0.9374654 -13.75138508 0.93641779 -11.375 1 C-7.31786235 1.1078309 -4.09395373 -0.10773562 0 0 Z " fill="#929080" transform="translate(245,199)"/>
<path d="M0 0 C0.66 0 1.32 0 2 0 C3.32087692 2.17556199 4.07112439 3.43100487 3.75 6 C2.96032048 8.10581206 2.07749074 10.02460032 1 12 C0.525625 12.9075 0.05125 13.815 -0.4375 14.75 C-1.2109375 15.86375 -1.2109375 15.86375 -2 17 C-2.99 17 -3.98 17 -5 17 C-5.66 18.32 -6.32 19.64 -7 21 C-7.33693273 14.03672362 -6.3030887 8.56654456 -4 2 C-3.34 2.33 -2.68 2.66 -2 3 C-1.34 2.01 -0.68 1.02 0 0 Z " fill="#666A59" transform="translate(81,120)"/>
<path d="M0 0 C-0.33 0.66 -0.66 1.32 -1 2 C-0.29335205 1.67402832 0.4132959 1.34805664 1.14135742 1.01220703 C4.22036479 -0.07802822 6.48440439 -0.23011332 9.73828125 -0.1953125 C11.33833008 -0.18564453 11.33833008 -0.18564453 12.97070312 -0.17578125 C14.07349609 -0.15902344 15.17628906 -0.14226563 16.3125 -0.125 C17.43462891 -0.11597656 18.55675781 -0.10695313 19.71289062 -0.09765625 C22.47547909 -0.07414486 25.23762932 -0.04128155 28 0 C28 0.66 28 1.32 28 2 C26.69546875 2.03738281 25.3909375 2.07476563 24.046875 2.11328125 C7.79431719 2.6281096 7.79431719 2.6281096 -7.5 7.75 C-10 9 -10 9 -12.375 8.6875 C-12.91125 8.460625 -13.4475 8.23375 -14 8 C-13.01 7.67 -12.02 7.34 -11 7 C-11 6.34 -11 5.68 -11 5 C-9.68 5 -8.36 5 -7 5 C-7.33 4.01 -7.66 3.02 -8 2 C-4.77208445 -0.1519437 -3.71599191 -0.20086443 0 0 Z " fill="#59594A" transform="translate(96,18)"/>
<path d="M0 0 C1.50662097 3.01324195 1.17770373 5.68286377 1 9 C0.34 9.66 -0.32 10.32 -1 11 C-1.31404687 15.23963281 -1.32617985 18.36534398 1 22 C-2.28696233 22.79953138 -3.71023192 23.09658936 -7 22 C-8.1053873 18.6838381 -8.16753642 16.11463365 -8.1875 12.625 C-8.20167969 11.50351563 -8.21585938 10.38203125 -8.23046875 9.2265625 C-8.00365368 6.05115158 -7.35390668 3.85765282 -6 1 C-5.814375 1.9590625 -5.814375 1.9590625 -5.625 2.9375 C-5.315625 3.9584375 -5.315625 3.9584375 -5 5 C-4.34 5.33 -3.68 5.66 -3 6 C-3.99 7.485 -3.99 7.485 -5 9 C-4.67 9.99 -4.34 10.98 -4 12 C-3.87882813 11.30132812 -3.75765625 10.60265625 -3.6328125 9.8828125 C-3.38144531 8.51769531 -3.38144531 8.51769531 -3.125 7.125 C-2.96257812 6.22007812 -2.80015625 5.31515625 -2.6328125 4.3828125 C-2 2 -2 2 0 0 Z " fill="#5F6255" transform="translate(186,209)"/>
<path d="M0 0 C1.8125 0.8125 1.8125 0.8125 3.8125 2.8125 C3.6173537 5.8697921 3.27539603 8.08161153 1.625 10.6875 C-1.0765601 12.36433041 -3.08455623 12.20862048 -6.1875 11.8125 C-8.1875 8.8125 -8.1875 8.8125 -8.125 5.8125 C-7.1875 2.8125 -7.1875 2.8125 -4.875 0.875 C-2.1875 -0.1875 -2.1875 -0.1875 0 0 Z " fill="#897161" transform="translate(329.1875,191.1875)"/>
<path d="M0 0 C2.13588215 1.56500121 2.89155344 2.47828409 3.43359375 5.0859375 C3.44023548 8.97799094 3.23680434 11.51652447 1.5 15.0625 C-1.54207605 17.42010894 -3.32187641 17.67834062 -7.09375 17.41796875 C-9 17 -9 17 -11.5 15.375 C-13.47945017 12.24087057 -13.58503961 10.65649759 -13 7 C-9.36805478 0.58356345 -7.34958831 -0.51576058 0 0 Z M-10 6 C-11.07272562 8.44539786 -11.07272562 8.44539786 -11 11 C-10.0785608 13.42304368 -10.0785608 13.42304368 -8 15 C-5 15.75 -5 15.75 -2 15 C0.4200844 12.25723768 0.95621733 10.44658319 1.3125 6.8125 C1.28143813 3.86497477 1.28143813 3.86497477 -1 2 C-5.48571731 1.29172885 -7.29973157 2.43178815 -10 6 Z " fill="#967C6B" transform="translate(201,71)"/>
<path d="M0 0 C0.33 0 0.66 0 1 0 C1.64894237 2.06152389 2.2940264 4.12426258 2.9375 6.1875 C3.47697266 7.91033203 3.47697266 7.91033203 4.02734375 9.66796875 C4.83756036 12.44353006 5.49134307 15.15687548 6 18 C5.34 18.33 4.68 18.66 4 19 C2.86649466 21.01669827 2.86649466 21.01669827 2 23 C1.54625 22.05125 1.0925 21.1025 0.625 20.125 C-0.80238254 16.99686321 -0.80238254 16.99686321 -3 15 C-3.4140625 12.8359375 -3.4140625 12.8359375 -3.625 10.375 C-3.69976563 9.55773437 -3.77453125 8.74046875 -3.8515625 7.8984375 C-3.90054687 7.27195313 -3.94953125 6.64546875 -4 6 C-3.01 5.67 -2.02 5.34 -1 5 C-0.67 3.35 -0.34 1.7 0 0 Z " fill="#7E7364" transform="translate(22,172)"/>
<path d="M0 0 C0.99 0.33 1.98 0.66 3 1 C4.49444711 9.62458031 3.45202981 15.45920405 -0.6875 23.125 C-5.14815571 28.67068008 -10.77346796 33.5247263 -17 37 C-17.99 36.67 -18.98 36.34 -20 36 C-18.68 35.34 -17.36 34.68 -16 34 C-16 33.34 -16 32.68 -16 32 C-14.9275 31.443125 -13.855 30.88625 -12.75 30.3125 C-9.33165287 28.38579525 -7.36154604 26.14872805 -5 23 C-4.34 23 -3.68 23 -3 23 C-2.690625 22.21625 -2.38125 21.4325 -2.0625 20.625 C-1 18 -1 18 0 16 C0.07181821 13.28239892 0.09299506 10.59140612 0.0625 7.875 C0.05798828 7.12089844 0.05347656 6.36679687 0.04882812 5.58984375 C0.03703499 3.72652873 0.01909942 1.86325445 0 0 Z " fill="#4C4C40" transform="translate(141,53)"/>
<path d="M0 0 C0.66 0 1.32 0 2 0 C1.43715981 3.77186936 -0.11380532 5.32892871 -2.8125 7.9375 C-7.68811293 13.25235734 -9.88832156 18.9016598 -11 26 C-10.75263433 28.79889672 -10.19702229 30.42640208 -9 33 C-12.875 31.125 -12.875 31.125 -14 30 C-14.53424128 22.78774277 -13.2580529 15.5161058 -10 9 C-8.66666667 8.33333333 -7.33333333 7.66666667 -6 7 C-5.67 6.34 -5.34 5.68 -5 5 C-4.34 5 -3.68 5 -3 5 C-2.690625 4.360625 -2.38125 3.72125 -2.0625 3.0625 C-1 1 -1 1 0 0 Z " fill="#505144" transform="translate(79,27)"/>
<path d="M0 0 C3.58552881 1.63687185 4.79315055 2.68972583 7 6 C6.67 6.99 6.34 7.98 6 9 C5.4225 8.21625 4.845 7.4325 4.25 6.625 C1.63605278 3.44186465 1.63605278 3.44186465 -2 2 C-5.65995652 2.16636166 -8.79413747 2.75394205 -11.40625 5.453125 C-13.98261264 9.53850004 -14.73083722 13.15820339 -14 18 C-11.76040926 20.9594592 -9.39068068 22.54685114 -6 24 C-7.625 24.8125 -7.625 24.8125 -10 25 C-15.49230769 21.01538462 -15.49230769 21.01538462 -17 18 C-17.54449744 11.57493026 -16.80407493 8.24345463 -13 3 C-9.03889142 -0.41095461 -5.02634262 -0.7631087 0 0 Z " fill="#967B69" transform="translate(204,30)"/>
<path d="M0 0 C0.66 0.33 1.32 0.66 2 1 C1.43410156 1.62648437 0.86820313 2.25296875 0.28515625 2.8984375 C-0.44832031 3.71570313 -1.18179688 4.53296875 -1.9375 5.375 C-2.66839844 6.18710938 -3.39929688 6.99921875 -4.15234375 7.8359375 C-6.85160399 10.99743893 -7.19665054 13.04839171 -7.5625 17.125 C-7.64628906 18.03507812 -7.73007813 18.94515625 -7.81640625 19.8828125 C-7.87699219 20.58148438 -7.93757812 21.28015625 -8 22 C-8.66 22 -9.32 22 -10 22 C-10.33 22.99 -10.66 23.98 -11 25 C-14.86038714 21.40508361 -17.66601416 17.02642552 -18.25390625 11.69921875 C-18.25052859 9.7975978 -18.1354851 7.89679135 -18 6 C-16 7 -16 7 -15.18359375 9.21484375 C-14.81427734 10.56255859 -14.81427734 10.56255859 -14.4375 11.9375 C-13.450487 15.55797321 -13.450487 15.55797321 -12 19 C-11.78085938 18.28714844 -11.56171875 17.57429688 -11.3359375 16.83984375 C-9.23978399 10.50877846 -6.99041428 5.53414783 -2 1 C-1.34 0.67 -0.68 0.34 0 0 Z " fill="#515145" transform="translate(202,213)"/>
<path d="M0 0 C2.60685184 2.60685184 2.36067349 3.96326403 2.59765625 7.6015625 C2.67693359 8.73207031 2.75621094 9.86257812 2.83789062 11.02734375 C2.91201172 12.21457031 2.98613281 13.40179688 3.0625 14.625 C3.21831516 16.95063786 3.37582818 19.27616267 3.53515625 21.6015625 C3.61008301 22.70145508 3.68500977 23.80134766 3.76220703 24.93457031 C4.05018793 28.6469812 4.48561065 32.31278428 5 36 C4.01 36.495 4.01 36.495 3 37 C-0.48761248 25.43171396 -3.7854747 11.94117224 0 0 Z " fill="#716658" transform="translate(15,151)"/>
<path d="M0 0 C0.70125 0.268125 1.4025 0.53625 2.125 0.8125 C2.62 3.2875 2.62 3.2875 3.125 5.8125 C2.568125 5.27625 2.01125 4.74 1.4375 4.1875 C-0.79220249 2.51044893 -0.79220249 2.51044893 -3.3125 3.3125 C-6.36043376 5.09665635 -8.48299106 7.22654438 -10.875 9.8125 C-11.535 10.4725 -12.195 11.1325 -12.875 11.8125 C-13.865 11.8125 -14.855 11.8125 -15.875 11.8125 C-15.875 12.4725 -15.875 13.1325 -15.875 13.8125 C-20.495 16.4525 -25.115 19.0925 -29.875 21.8125 C-29.875 22.8025 -29.875 23.7925 -29.875 24.8125 C-28.555 25.4725 -27.235 26.1325 -25.875 26.8125 C-28.25 26.9375 -28.25 26.9375 -30.875 26.8125 C-31.535 26.1525 -32.195 25.4925 -32.875 24.8125 C-32.73046875 22.8515625 -32.73046875 22.8515625 -31.875 20.8125 C-30.30078125 19.4609375 -30.30078125 19.4609375 -28.1875 18.1875 C-23.92040994 15.50005386 -19.78878197 12.68127268 -15.6875 9.75 C-14.81508667 9.13294189 -14.81508667 9.13294189 -13.92504883 8.50341797 C-11.03901101 6.44377865 -8.2949737 4.33135406 -5.62890625 1.9921875 C-2.875 -0.1875 -2.875 -0.1875 0 0 Z " fill="#8A6F5D" transform="translate(314.875,209.1875)"/>
<path d="M0 0 C0.66 0.66 1.32 1.32 2 2 C1.625 5.625 1.625 5.625 1 9 C0.01 9.33 -0.98 9.66 -2 10 C-2.67156616 11.93618425 -2.67156616 11.93618425 -3 14 C-3.33 14.66 -3.66 15.32 -4 16 C-6.31 15.67 -8.62 15.34 -11 15 C-9.66602243 11.40852194 -8.25016162 8.1156084 -6 5 C-4.67405895 4.63837971 -3.34061543 4.30271961 -2 4 C-0.71563266 2.0162233 -0.71563266 2.0162233 0 0 Z " fill="#A5876E" transform="translate(313,181)"/>
<path d="M0 0 C1.2065625 0.0309375 1.2065625 0.0309375 2.4375 0.0625 C3.625 2.25 3.625 2.25 4.4375 5.0625 C3.14958122 8.13919487 2.11851262 9.65389243 -0.75 11.375 C-1.6471875 11.7153125 -1.6471875 11.7153125 -2.5625 12.0625 C-5.5625 10.0625 -5.5625 10.0625 -6.4375 8.25 C-6.61532169 5.13812049 -5.31830334 3.56114321 -3.5625 1.0625 C-2.5625 0.0625 -2.5625 0.0625 0 0 Z " fill="#957061" transform="translate(339.5625,164.9375)"/>
<path d="M0 0 C1.79296875 1.3671875 1.79296875 1.3671875 2.79296875 3.3671875 C-0.78665128 2.80494352 -3.32261965 1.89412151 -6.39453125 -0.0078125 C-17.48203266 -6.24792341 -27.78500306 -5.9771603 -40.20703125 -5.6328125 C-40.20703125 -6.2928125 -40.20703125 -6.9528125 -40.20703125 -7.6328125 C-26.54303159 -11.7320124 -11.66570517 -7.34577846 0 0 Z " fill="#999787" transform="translate(288.20703125,78.6328125)"/>
<path d="M0 0 C0.495 1.485 0.495 1.485 1 3 C-9.37050139 11.64703697 -22.32072458 17.38390876 -36 17 C-35.67 16.34 -35.34 15.68 -35 15 C-32.41411048 14.24430626 -29.87362521 13.59123948 -27.25 13 C-22.65138158 11.94132526 -18.38583246 10.76695408 -14 9 C-13.01 9 -12.02 9 -11 9 C-11 8.34 -11 7.68 -11 7 C-8.69 6.34 -6.38 5.68 -4 5 C-4 4.34 -4 3.68 -4 3 C-2 1.375 -2 1.375 0 0 Z " fill="#505043" transform="translate(269,196)"/>
<path d="M0 0 C0.495 1.485 0.495 1.485 1 3 C-5.80137975 9.94140816 -15.05204424 15.55213289 -25.01464844 16.11352539 C-25.7059082 16.10828857 -26.39716797 16.10305176 -27.109375 16.09765625 C-27.86347656 16.09443359 -28.61757812 16.09121094 -29.39453125 16.08789062 C-30.17183594 16.07951172 -30.94914062 16.07113281 -31.75 16.0625 C-32.54277344 16.05798828 -33.33554688 16.05347656 -34.15234375 16.04882812 C-36.10159508 16.03708565 -38.05080738 16.01915146 -40 16 C-40 15.67 -40 15.34 -40 15 C-34.72 15 -29.44 15 -24 15 C-24 14.34 -24 13.68 -24 13 C-23.37351562 12.80664062 -22.74703125 12.61328125 -22.1015625 12.4140625 C-21.28429687 12.15367188 -20.46703125 11.89328125 -19.625 11.625 C-18.81289062 11.36976562 -18.00078125 11.11453125 -17.1640625 10.8515625 C-14.83540815 10.10145717 -14.83540815 10.10145717 -13 8 C-11.9275 7.7525 -10.855 7.505 -9.75 7.25 C-5.02767816 5.67589272 -3.27408268 3.67336106 0 0 Z " fill="#525246" transform="translate(110,54)"/>
<path d="M0 0 C1.30517578 -0.01224609 2.61035156 -0.02449219 3.95507812 -0.03710938 C5.19837891 -0.03904297 6.44167969 -0.04097656 7.72265625 -0.04296875 C9.43787476 -0.04913208 9.43787476 -0.04913208 11.18774414 -0.05541992 C13.9375 0.1875 13.9375 0.1875 15.9375 2.1875 C15.22722656 2.24808594 14.51695313 2.30867187 13.78515625 2.37109375 C12.86605469 2.45488281 11.94695312 2.53867188 11 2.625 C9.62521484 2.74681641 9.62521484 2.74681641 8.22265625 2.87109375 C5.97590268 2.94794976 5.97590268 2.94794976 4.9375 4.1875 C3.30036853 4.20417674 1.66239931 4.15049482 0.02734375 4.06640625 C-0.96201172 4.01806641 -1.95136719 3.96972656 -2.97070312 3.91992188 C-4.53208008 3.83581055 -4.53208008 3.83581055 -6.125 3.75 C-7.69217773 3.67168945 -7.69217773 3.67168945 -9.29101562 3.59179688 C-11.88178236 3.46166704 -14.47220666 3.32668842 -17.0625 3.1875 C-17.0625 2.5275 -17.0625 1.8675 -17.0625 1.1875 C-11.61014246 -0.62995251 -5.70485314 0.00282558 0 0 Z " fill="#908B7D" transform="translate(112.0625,9.8125)"/>
<path d="M0 0 C0.66 0 1.32 0 2 0 C2 0.66 2 1.32 2 2 C2.66 2 3.32 2 4 2 C7.16446272 6.14823351 9.78638806 10.29110448 10.4375 15.5 C10 18 10 18 9 20 C8.34 20 7.68 20 7 20 C6.79375 19.195625 6.5875 18.39125 6.375 17.5625 C4.57139638 12.889527 1.87884691 9.07383996 -1 5 C-0.34 4.34 0.32 3.68 1 3 C0.67 2.01 0.34 1.02 0 0 Z " fill="#636758" transform="translate(155,31)"/>
<path d="M0 0 C0.66 0.33 1.32 0.66 2 1 C1.67 1.66 1.34 2.32 1 3 C1.556875 4.175625 1.556875 4.175625 2.125 5.375 C2.41375 6.24125 2.7025 7.1075 3 8 C1.625 10.3125 1.625 10.3125 0 12 C-0.66 11.67 -1.32 11.34 -2 11 C-4.11683841 11.89163577 -4.11683841 11.89163577 -6 13 C-6 11.68 -6 10.36 -6 9 C-7.98 10.32 -9.96 11.64 -12 13 C-10.61536056 9.87250593 -9.00477577 7.7595015 -6.5625 5.375 C-5.96566406 4.78460938 -5.36882813 4.19421875 -4.75390625 3.5859375 C-3 2 -3 2 0 0 Z " fill="#686C5C" transform="translate(66,145)"/>
<path d="M0 0 C1.8125 2.625 1.8125 2.625 3 5 C2.01 5.495 2.01 5.495 1 6 C0.773125 5.360625 0.54625 4.72125 0.3125 4.0625 C-0.85506227 1.79576957 -0.85506227 1.79576957 -3.375 1 C-6.09826954 0.76637807 -6.09826954 0.76637807 -8.375 2.5 C-10.3744306 5.02933863 -10.3744306 5.02933863 -9.75 8.75 C-9.5025 9.8225 -9.255 10.895 -9 12 C-6.36 12 -3.72 12 -1 12 C-0.34 10.35 0.32 8.7 1 7 C1.33 8.32 1.66 9.64 2 11 C-0.68271422 13.5249075 -2.39954065 14.88971155 -6.0625 15.5625 C-9 15 -9 15 -11.4375 13 C-13.66187604 8.729198 -13.12751925 6.66041289 -12 2 C-10.51914324 -0.18602665 -9.51590786 -0.77643993 -7.125 -1.8125 C-4.16494194 -2.07368159 -2.58365626 -1.45744712 0 0 Z " fill="#866A59" transform="translate(227,58)"/>
<path d="M0 0 C2.875 0.6875 2.875 0.6875 3.875 1.6875 C4.0625 4.125 4.0625 4.125 3.875 6.6875 C1.875 8.6875 1.875 8.6875 -1.125 8.9375 C-4.125 8.6875 -4.125 8.6875 -6.125 6.6875 C-6.4375 4.1875 -6.4375 4.1875 -6.125 1.6875 C-3.125 -0.3125 -3.125 -0.3125 0 0 Z " fill="#55554B" transform="translate(92.125,43.3125)"/>
<path d="M0 0 C4.53858541 6.80787812 4.31314901 14.40308648 4.25 22.3125 C4.25773437 23.30056641 4.26546875 24.28863281 4.2734375 25.30664062 C4.27085937 26.25345703 4.26828125 27.20027344 4.265625 28.17578125 C4.26336914 29.03083252 4.26111328 29.88588379 4.25878906 30.7668457 C4 33 4 33 2 36 C1.12397806 33.00998755 0.91345526 30.44050873 1.0078125 27.33203125 C1.02457031 26.43806641 1.04132813 25.54410156 1.05859375 24.62304688 C1.10240816 22.76866639 1.15431864 20.91445718 1.21484375 19.06054688 C1.31333654 12.80625475 0.37603502 7.79058421 -2 2 C-1.34 1.34 -0.68 0.68 0 0 Z " fill="#989683" transform="translate(316,116)"/>
<path d="M0 0 C0.99 0 1.98 0 3 0 C1.90343674 9.57000665 -3.88025535 17.74851689 -11 24 C-11.99 23.67 -12.98 23.34 -14 23 C-13.46890625 22.45472656 -12.9378125 21.90945312 -12.390625 21.34765625 C-7.58669757 16.21937606 -4.41898429 11.58218357 -2 5 C-1.5875 3.989375 -1.175 2.97875 -0.75 1.9375 C-0.37875 0.9784375 -0.37875 0.9784375 0 0 Z " fill="#525246" transform="translate(166,76)"/>
<path d="M0 0 C4.88621909 2.8510416 10.17537422 6.52612267 12 12 C12.06740865 13.56118428 12.08514456 15.1250252 12.0625 16.6875 C12.05347656 17.49574219 12.04445312 18.30398437 12.03515625 19.13671875 C12.02355469 19.75160156 12.01195312 20.36648437 12 21 C11.67 21 11.34 21 11 21 C11 18.36 11 15.72 11 13 C10.34 13 9.68 13 9 13 C8.566875 12.2575 8.13375 11.515 7.6875 10.75 C5.69127685 7.49689561 4.32696845 5.9112372 1 4 C-2.36135937 3.67520607 -5.63481807 3.76476398 -9 4 C-9 4.66 -9 5.32 -9 6 C-9.99 6.33 -10.98 6.66 -12 7 C-9.25137618 0.86845455 -7.01126571 -1.03444904 0 0 Z " fill="#4E5045" transform="translate(125,43)"/>
<path d="M0 0 C0.78503906 0.00515625 1.57007813 0.0103125 2.37890625 0.015625 C3.55259766 0.00789063 3.55259766 0.00789063 4.75 0 C6.94140625 0.265625 6.94140625 0.265625 9.94140625 2.265625 C9.32144547 3.55971789 8.69524272 4.85082173 8.06640625 6.140625 C7.71835937 6.85992187 7.3703125 7.57921875 7.01171875 8.3203125 C5.94140625 10.265625 5.94140625 10.265625 3.94140625 12.265625 C2.95140625 12.265625 1.96140625 12.265625 0.94140625 12.265625 C1.29203125 11.5025 1.64265625 10.739375 2.00390625 9.953125 C3.26501509 7.21803121 3.26501509 7.21803121 1.94140625 4.265625 C-1.06706793 3.04042236 -1.06706793 3.04042236 -4.05859375 2.265625 C-2.05859375 0.265625 -2.05859375 0.265625 0 0 Z " fill="#636658" transform="translate(48.05859375,74.734375)"/>
<path d="M0 0 C0.66 0 1.32 0 2 0 C0.30604831 13.29555108 -8.57920855 24.03875935 -18 33 C-18.66 32.67 -19.32 32.34 -20 32 C-18.38405168 29.95880212 -16.7143618 27.95927063 -15 26 C-14.34 26 -13.68 26 -13 26 C-12.67 25.01 -12.34 24.02 -12 23 C-11.34 23 -10.68 23 -10 23 C-9.896875 22.443125 -9.79375 21.88625 -9.6875 21.3125 C-8.85821592 18.5230899 -7.65700944 16.3860936 -6 14 C-5.34 14 -4.68 14 -4 14 C-3.896875 13.175 -3.79375 12.35 -3.6875 11.5 C-2.88353944 7.40710988 -1.53647842 3.87459775 0 0 Z " fill="#979487" transform="translate(316,154)"/>
<path d="M0 0 C0.75856846 2.24099964 1.13259024 3.56473826 0.43359375 5.859375 C-2.98987286 12.35724889 -6.73910686 18.89760026 -13 23 C-13.66 23 -14.32 23 -15 23 C-15 23.66 -15 24.32 -15 25 C-15.99 25.33 -16.98 25.66 -18 26 C-16.58783722 22.71456007 -14.91434939 20.85454132 -12.25 18.5 C-7.96623469 14.37200797 -5.66507351 9.92013428 -3.2265625 4.5390625 C-2 2 -2 2 0 0 Z " fill="#58594B" transform="translate(161,74)"/>
<path d="M0 0 C0.66 0.33 1.32 0.66 2 1 C-3.79581728 7.68595987 -11.17744273 13.18896274 -20 15 C-21.44098431 15.07766084 -22.88508629 15.10796367 -24.328125 15.09765625 C-25.12734375 15.09443359 -25.9265625 15.09121094 -26.75 15.08789062 C-27.575 15.07951172 -28.4 15.07113281 -29.25 15.0625 C-30.09046875 15.05798828 -30.9309375 15.05347656 -31.796875 15.04882812 C-33.86461401 15.03707961 -35.93231624 15.01914522 -38 15 C-38 14.67 -38 14.34 -38 14 C-36.81664062 13.90203125 -35.63328125 13.8040625 -34.4140625 13.703125 C-20.71952493 12.45684962 -10.04070962 10.04070962 0 0 Z " fill="#979485" transform="translate(213,92)"/>
<path d="M0 0 C-1 2 -1 2 -3.1171875 2.82421875 C-4.02726562 3.10910156 -4.93734375 3.39398438 -5.875 3.6875 C-14.86829474 6.81763375 -22.37705426 12.40983979 -30 18 C-28.47148377 13.67419917 -25.18002846 11.58244125 -21.5625 9.0625 C-20.94012451 8.62446045 -20.31774902 8.1864209 -19.67651367 7.73510742 C-5.67066616 -1.89022205 -5.67066616 -1.89022205 0 0 Z " fill="#989384" transform="translate(247,73)"/>
<path d="M0 0 C0.66 0.66 1.32 1.32 2 2 C2.33 2 2.66 2 3 2 C3.33 2.66 3.66 3.32 4 4 C2.95285076 5.32477959 1.88655331 6.63443746 0.8125 7.9375 C0.22082031 8.66839844 -0.37085938 9.39929688 -0.98046875 10.15234375 C-3.32505203 12.29738803 -4.88391498 12.66094412 -8 13 C-8.33 12.34 -8.66 11.68 -9 11 C-7.625 9 -7.625 9 -6 7 C-5.34 7 -4.68 7 -4 7 C-3.71125 6.401875 -3.4225 5.80375 -3.125 5.1875 C-2 3 -2 3 0 0 Z " fill="#686A5C" transform="translate(156,87)"/>
<path d="M0 0 C2.125 0.9375 2.125 0.9375 4 2 C4.04241723 4.33294775 4.04092937 6.66702567 4 9 C3 10 3 10 0.625 10.25 C-2 10 -2 10 -3.8125 8.5 C-4.204375 8.005 -4.59625 7.51 -5 7 C-2.25 1.125 -2.25 1.125 0 0 Z " fill="#807665" transform="translate(26,117)"/>
<path d="M0 0 C0 0.66 0 1.32 0 2 C-7.02995874 6.05777229 -14.07713941 10.08449738 -21.1875 14 C-22.23292969 14.5775 -23.27835938 15.155 -24.35546875 15.75 C-27 17 -27 17 -30 17 C-30 16.34 -30 15.68 -30 15 C-28.88882813 14.50371094 -27.77765625 14.00742188 -26.6328125 13.49609375 C-18.88371062 9.97615091 -11.63521059 6.52016436 -4.8828125 1.25 C-3 0 -3 0 0 0 Z " fill="#949182" transform="translate(178,222)"/>
<path d="M0 0 C3.24951118 1.62475559 4.62003957 4.76694985 6 8 C6.25 11.4375 6.25 11.4375 6 14 C5.01 14 4.02 14 3 14 C2.34 13.01 1.68 12.02 1 11 C-1.05003955 9.80767387 -1.05003955 9.80767387 -3 9 C-3 7.68 -3 6.36 -3 5 C-2.34 4.67 -1.68 4.34 -1 4 C-0.34786708 1.97536745 -0.34786708 1.97536745 0 0 Z " fill="#79715F" transform="translate(31,197)"/>
<path d="M0 0 C0.66 0.66 1.32 1.32 2 2 C1.154375 2.70125 0.30875 3.4025 -0.5625 4.125 C-3.37469066 6.78572604 -3.37469066 6.78572604 -2.875 10.25 C-2.26863479 12.88450618 -2.26863479 12.88450618 -1 14 C2.52637472 14.15672777 5.61905851 14.04028969 9 13 C8.34 14.32 7.68 15.64 7 17 C-0.10583942 17.60218978 -0.10583942 17.60218978 -4.0625 14.9375 C-6 12 -6 12 -6.125 8.5 C-4.83347355 4.48191772 -3.18961302 2.69890332 0 0 Z " fill="#6C5F52" transform="translate(228,29)"/>
<path d="M0 0 C4.07377233 1.71580066 7.24337486 4.53763346 10.625 7.3125 C15.56702721 11.30331495 20.33822436 14.56057007 26.20703125 17.09765625 C28 18 28 18 29 20 C17.48479669 17.22046817 7.00832091 9.48184594 0 0 Z " fill="#969483" transform="translate(57,225)"/>
<path d="M0 0 C0.99 0.495 0.99 0.495 2 1 C2.02505615 1.66008057 2.0501123 2.32016113 2.07592773 3.00024414 C2.19271752 6.02115369 2.31506446 9.04181422 2.4375 12.0625 C2.47681641 13.10083984 2.51613281 14.13917969 2.55664062 15.20898438 C2.77666344 20.54030641 3.1116184 25.73689893 4 31 C3.34 31.33 2.68 31.66 2 32 C0.22374277 24.70472932 -0.25501764 17.86601622 -0.125 10.375 C-0.11597656 9.37082031 -0.10695312 8.36664063 -0.09765625 7.33203125 C-0.07437746 4.88775874 -0.04168487 2.44401592 0 0 Z " fill="#949180" transform="translate(34,154)"/>
<path d="M0 0 C1.34061543 0.30271961 2.67405895 0.63837971 4 1 C4.99 0.67 5.98 0.34 7 0 C7.75 1.75 7.75 1.75 8 4 C6.375 6.25 6.375 6.25 4 8 C1.375 8.375 1.375 8.375 -1 8 C-1.66 7.34 -2.32 6.68 -3 6 C-2.63318342 3.06546739 -2.13562754 2.13562754 0 0 Z " fill="#A68771" transform="translate(248,50)"/>
<path d="M0 0 C0.33 0.99 0.66 1.98 1 3 C-1.89798344 7.65061003 -5.93271371 10.27678276 -10.4375 13.1875 C-11.42073242 13.84395508 -11.42073242 13.84395508 -12.42382812 14.51367188 C-15.81013018 16.73837382 -19.07230369 18.8708739 -23 20 C-23.99 19.67 -24.98 19.34 -26 19 C-24.02 18.34 -22.04 17.68 -20 17 C-20 16.34 -20 15.68 -20 15 C-19.38253906 14.731875 -18.76507813 14.46375 -18.12890625 14.1875 C-11.45877627 11.10116893 -3.42655327 6.85310654 0 0 Z " fill="#926E5E" transform="translate(316,215)"/>
<path d="M0 0 C1.32 0.33 2.64 0.66 4 1 C3.8125 3.875 3.8125 3.875 3 7 C-0.51702502 9.21070144 -3.91560921 9.44395552 -8 9 C-9.875 7.5 -9.875 7.5 -11 6 C-10.34 4.35 -9.68 2.7 -9 1 C-7.68 1.33 -6.36 1.66 -5 2 C-5.7425 2.680625 -5.7425 2.680625 -6.5 3.375 C-8.22609337 4.87635519 -8.22609337 4.87635519 -8 7 C-4.7 6.34 -1.4 5.68 2 5 C2 4.01 2 3.02 2 2 C1.34 2 0.68 2 0 2 C0 1.34 0 0.68 0 0 Z " fill="#8F7969" transform="translate(264,234)"/>
<path d="M0 0 C0 3 0 3 -2 5.3125 C-7.15967039 10.16522116 -13.07563899 14.14916534 -19 18 C-19.66 17.67 -20.32 17.34 -21 17 C-17.93508688 13.76603892 -14.64757246 11.14020469 -11.0625 8.5 C-7.31533849 5.7334484 -3.61908034 2.93258812 0 0 Z " fill="#525246" transform="translate(133,71)"/>
<path d="M0 0 C0.33 0 0.66 0 1 0 C1.66 2.31 2.32 4.62 3 7 C2.01 7.33 1.02 7.66 0 8 C0.31127516 9.58357459 0.62407289 11.16684993 0.9375 12.75 C1.11152344 13.63171875 1.28554688 14.5134375 1.46484375 15.421875 C1.92368488 17.63235053 2.43336074 19.81512068 3 22 C0.01834738 19.70642106 -1.68403167 18.29526088 -2.58984375 14.58203125 C-3.03395291 10.46337509 -3.20059636 6.99890941 -2 3 C-1.34 3 -0.68 3 0 3 C0 2.01 0 1.02 0 0 Z " fill="#4C4C42" transform="translate(61,43)"/>
<path d="M0 0 C8.29683005 -0.19676277 15.95075394 -0.25943749 24 2 C24 2.99 24 3.98 24 5 C22.54077307 4.88590407 21.08259402 4.75834456 19.625 4.625 C18.40683594 4.52058594 18.40683594 4.52058594 17.1640625 4.4140625 C15 4 15 4 13 2 C10.10116917 1.75660449 10.10116917 1.75660449 6.875 1.875 C5.23144531 1.90207031 5.23144531 1.90207031 3.5546875 1.9296875 C2.71164063 1.95289062 1.86859375 1.97609375 1 2 C0.67 1.34 0.34 0.68 0 0 Z " fill="#969485" transform="translate(86,85)"/>
<path d="M0 0 C0.66 0 1.32 0 2 0 C0.40589849 8.47926336 -1.27752519 16.79395891 -4 25 C-4.33 25 -4.66 25 -5 25 C-4.52531715 16.68486587 -3.77826084 7.55652167 0 0 Z " fill="#989582" transform="translate(40,128)"/>
<path d="M0 0 C0 0.33 0 0.66 0 1 C-1.65 1.33 -3.3 1.66 -5 2 C-5 2.66 -5 3.32 -5 4 C-4.34 4.33 -3.68 4.66 -3 5 C-3 5.66 -3 6.32 -3 7 C-10.42857143 9.42857143 -10.42857143 9.42857143 -14 8 C-12.68 7.34 -11.36 6.68 -10 6 C-10 4.68 -10 3.36 -10 2 C-6.5980513 -0.09350689 -3.94727588 -0.17942163 0 0 Z " fill="#606554" transform="translate(221,112)"/>
<path d="M0 0 C0.66 0.66 1.32 1.32 2 2 C-0.51758117 2.98829417 -3.03854724 3.9657226 -5.5625 4.9375 C-6.26697266 5.21529297 -6.97144531 5.49308594 -7.69726562 5.77929688 C-12.16090498 7.4865875 -16.24380456 8.50625566 -21 9 C-21 8.34 -21 7.68 -21 7 C-14.07 4.69 -7.14 2.38 0 0 Z " fill="#9A9788" transform="translate(146,238)"/>
<path d="M0 0 C3 1 3 1 4.07495117 2.67407227 C4.39439697 3.38104248 4.71384277 4.0880127 5.04296875 4.81640625 C5.56987305 5.96206055 5.56987305 5.96206055 6.10742188 7.13085938 C6.46384766 7.93330078 6.82027344 8.73574219 7.1875 9.5625 C7.55552734 10.36880859 7.92355469 11.17511719 8.30273438 12.00585938 C9.21124489 13.99986298 10.10980336 15.99776958 11 18 C6.64220193 16.1069046 5.45040441 13.77994179 3.25 9.5625 C2.63640625 8.40878906 2.0228125 7.25507813 1.390625 6.06640625 C0 3 0 3 0 0 Z " fill="#655D52" transform="translate(19,188)"/>
<path d="M0 0 C1.58409994 0.11487748 3.16728963 0.24234508 4.75 0.375 C6.07257813 0.47941406 6.07257813 0.47941406 7.421875 0.5859375 C9.99066382 0.99850055 11.75841015 1.71160957 14 3 C14 3.99 14 4.98 14 6 C9.125 5.125 9.125 5.125 8 4 C3.34911285 3.69476038 3.34911285 3.69476038 -1 5 C-0.67 3.35 -0.34 1.7 0 0 Z " fill="#5A5F50" transform="translate(117,40)"/>
<path d="M0 0 C1.07507813 0.36158203 1.07507813 0.36158203 2.171875 0.73046875 C2.501875 2.38046875 2.831875 4.03046875 3.171875 5.73046875 C2.615 5.19421875 2.058125 4.65796875 1.484375 4.10546875 C-0.74532749 2.42841768 -0.74532749 2.42841768 -3.265625 3.23046875 C-6.30569025 5.01001914 -8.40854594 7.18354342 -10.828125 9.73046875 C-11.818125 10.39046875 -12.808125 11.05046875 -13.828125 11.73046875 C-13.34003649 7.5723301 -11.24359961 5.9793809 -8.078125 3.41796875 C-7.21703125 2.69996094 -6.3559375 1.98195312 -5.46875 1.2421875 C-2.828125 -0.26953125 -2.828125 -0.26953125 0 0 Z " fill="#907467" transform="translate(314.828125,209.26953125)"/>
<path d="M0 0 C2.125 0.9375 2.125 0.9375 4 2 C4 2.99 4 3.98 4 5 C3.34 5 2.68 5 2 5 C2 5.66 2 6.32 2 7 C0.35 7.33 -1.3 7.66 -3 8 C-4 5 -4 5 -3.1875 2.875 C-2 1 -2 1 0 0 Z " fill="#A4836D" transform="translate(327,193)"/>
<path d="M0 0 C0.33 0.66 0.66 1.32 1 2 C-1.99860191 8.3822383 -6.2739216 13.8238189 -11 19 C-11.99 18.67 -12.98 18.34 -14 18 C-13.32453125 17.20335937 -12.6490625 16.40671875 -11.953125 15.5859375 C-11.05192294 14.51576005 -10.15089032 13.4454399 -9.25 12.375 C-8.8065625 11.85292969 -8.363125 11.33085937 -7.90625 10.79296875 C-5.00441129 7.33636676 -2.44030626 3.79729899 0 0 Z " fill="#8B7460" transform="translate(308,182)"/>
<path d="M0 0 C0.99 0.33 1.98 0.66 3 1 C2.55269531 1.4846875 2.10539062 1.969375 1.64453125 2.46875 C-2.47777883 7.03932834 -5.9238704 11.66993213 -9 17 C-10 15 -10 15 -9.43359375 13.046875 C-7.04472437 7.53842325 -4.49633116 3.98538444 0 0 Z " fill="#5B5C4F" transform="translate(72,25)"/>
<path d="M0 0 C0.99 0.33 1.98 0.66 3 1 C5.56634861 1.22718496 8.11678107 1.41608184 10.6875 1.5625 C11.38939453 1.60568359 12.09128906 1.64886719 12.81445312 1.69335938 C14.54275206 1.7991736 16.2713511 1.90006581 18 2 C18 2.33 18 2.66 18 3 C12.06 3 6.12 3 0 3 C-0.66 4.65 -1.32 6.3 -2 8 C-2.99 8.33 -3.98 8.66 -5 9 C-4.34 7.02 -3.68 5.04 -3 3 C-2.34 3 -1.68 3 -1 3 C-0.67 2.01 -0.34 1.02 0 0 Z " fill="#4A4A3D" transform="translate(68,66)"/>
<path d="M0 0 C3 2 3 2 3.6875 4 C4.9009009 15.64864865 4.9009009 15.64864865 2 20 C1.34 13.4 0.68 6.8 0 0 Z " fill="#565546" transform="translate(167,48)"/>
<path d="M0 0 C0.66 0.33 1.32 0.66 2 1 C1.45730469 1.56847656 0.91460937 2.13695312 0.35546875 2.72265625 C-3.86941104 7.28248147 -6.99064318 11.09751435 -9 17 C-9.66 16.67 -10.32 16.34 -11 16 C-8.71900718 8.83116543 -6.24586777 4.31596481 0 0 Z " fill="#43423A" transform="translate(202,213)"/>
<path d="M0 0 C0.66 0 1.32 0 2 0 C1.40364189 3.57814867 0.000066 5.54422861 -2.375 8.25 C-2.98085937 8.95640625 -3.58671875 9.6628125 -4.2109375 10.390625 C-6 12 -6 12 -9 12 C-9.66 11.34 -10.32 10.68 -11 10 C-9.7934375 9.319375 -9.7934375 9.319375 -8.5625 8.625 C-5.91143428 7.25274335 -5.91143428 7.25274335 -5 5 C-4.34 5 -3.68 5 -3 5 C-2.690625 4.360625 -2.38125 3.72125 -2.0625 3.0625 C-1 1 -1 1 0 0 Z " fill="#595A4D" transform="translate(79,27)"/>
<path d="M0 0 C0.33 0.66 0.66 1.32 1 2 C1.66 2.33 2.32 2.66 3 3 C3 3.66 3 4.32 3 5 C2.34 5 1.68 5 1 5 C0.67 5.66 0.34 6.32 0 7 C-0.33 6.01 -0.66 5.02 -1 4 C-3.03241727 4.63979849 -3.03241727 4.63979849 -5 6 C-5.81171228 8.55519921 -5.81171228 8.55519921 -6 11 C-6.66 10.67 -7.32 10.34 -8 10 C-8.36576193 6.70814262 -8.3221413 5.41418168 -6.25 2.75 C-4.05575272 1.04336323 -2.71561337 0.38794477 0 0 Z " fill="#977B68" transform="translate(251,47)"/>
<path d="M0 0 C1.66482422 0.11794922 1.66482422 0.11794922 3.36328125 0.23828125 C6.68297433 0.68688842 9.55322476 1.52577922 12.6875 2.6875 C12.6875 3.0175 12.6875 3.3475 12.6875 3.6875 C5.4275 3.3575 -1.8325 3.0275 -9.3125 2.6875 C-9.3125 2.0275 -9.3125 1.3675 -9.3125 0.6875 C-5.87786784 -0.45737739 -3.59829436 -0.27806888 0 0 Z " fill="#979382" transform="translate(104.3125,10.3125)"/>
<path d="M0 0 C7.01694482 1.25397873 14.01556007 2.57584088 21 4 C21 4.66 21 5.32 21 6 C13.47407567 5.3622098 6.32901118 3.80110167 -1 2 C-0.67 1.34 -0.34 0.68 0 0 Z " fill="#969286" transform="translate(152,101)"/>
<path d="M0 0 C0 0.33 0 0.66 0 1 C-2.31 1.33 -4.62 1.66 -7 2 C-4.525 2.99 -4.525 2.99 -2 4 C-2.33 4.66 -2.66 5.32 -3 6 C-8.75 6.125 -8.75 6.125 -11 5 C-10.625 2.5625 -10.625 2.5625 -10 0 C-6.7169902 -1.6415049 -3.57454967 -0.51888624 0 0 Z " fill="#534D43" transform="translate(53,74)"/>
<path d="M0 0 C0.99 0.33 1.98 0.66 3 1 C4.00496852 4.01490557 4.10335303 6.04181692 4.0625 9.1875 C4.05347656 10.08855469 4.04445312 10.98960937 4.03515625 11.91796875 C4.02355469 12.60503906 4.01195312 13.29210937 4 14 C3.67 14 3.34 14 3 14 C2.67 11.03 2.34 8.06 2 5 C1.34 5 0.68 5 0 5 C-0.33 7.97 -0.66 10.94 -1 14 C-1.33 14 -1.66 14 -2 14 C-2.25028811 12.41986783 -2.47440946 10.83557694 -2.6875 9.25 C-2.81511719 8.36828125 -2.94273437 7.4865625 -3.07421875 6.578125 C-2.98397191 3.44323483 -2.07384637 2.28176413 0 0 Z " fill="#6D7160" transform="translate(251,156)"/>
<path d="M0 0 C1.32 0.66 2.64 1.32 4 2 C4 2.33 4 2.66 4 3 C6.97 3.33 9.94 3.66 13 4 C13 4.33 13 4.66 13 5 C11.60974609 5.07347656 11.60974609 5.07347656 10.19140625 5.1484375 C8.99386719 5.22320312 7.79632813 5.29796875 6.5625 5.375 C4.77005859 5.47941406 4.77005859 5.47941406 2.94140625 5.5859375 C1.97074219 5.72257812 1.00007813 5.85921875 0 6 C-0.33 6.66 -0.66 7.32 -1 8 C-1.66 7.67 -2.32 7.34 -3 7 C-2.67 5.35 -2.34 3.7 -2 2 C-1.34 2 -0.68 2 0 2 C0 1.34 0 0.68 0 0 Z " fill="#6C6C5E" transform="translate(71,59)"/>
<path d="M0 0 C1.65 0 3.3 0 5 0 C4.67 1.32 4.34 2.64 4 4 C9.61 4 15.22 4 21 4 C21 4.33 21 4.66 21 5 C17.89591193 5.05807043 14.7919636 5.09361914 11.6875 5.125 C10.36588867 5.15013672 10.36588867 5.15013672 9.01757812 5.17578125 C8.17001953 5.18222656 7.32246094 5.18867187 6.44921875 5.1953125 C5.66893311 5.20578613 4.88864746 5.21625977 4.0847168 5.22705078 C2 5 2 5 -1 3 C-0.67 2.01 -0.34 1.02 0 0 Z " fill="#717665" transform="translate(216,113)"/>
<path d="M0 0 C4.67225381 0.63875667 8.87268349 1.85754418 13.3125 3.4375 C14.54613281 3.86933594 15.77976563 4.30117187 17.05078125 4.74609375 C20 6 20 6 21 8 C3.4516129 3.4516129 3.4516129 3.4516129 0 0 Z " fill="#979385" transform="translate(120,91)"/>
<path d="M0 0 C0.99 0 1.98 0 3 0 C2.45660208 4.56454251 1.20536179 7.9728176 -1 12 C-1.66 11.34 -2.32 10.68 -3 10 C-2.61233695 6.41411676 -1.41433748 3.30012079 0 0 Z " fill="#5A5A4C" transform="translate(166,76)"/>
<path d="M0 0 C0.66 0.33 1.32 0.66 2 1 C-1.3 4.63 -4.6 8.26 -8 12 C-9.32 11.67 -10.64 11.34 -12 11 C-11.278125 10.443125 -10.55625 9.88625 -9.8125 9.3125 C-7.02282044 7.01876348 -4.51793656 4.5859889 -2 2 C-1.34 1.34 -0.68 0.68 0 0 Z " fill="#686B5C" transform="translate(99,96)"/>
<path d="M0 0 C0.99 0.66 1.98 1.32 3 2 C3.65423391 7.56098826 2.38864199 11.12318926 0 16 C-0.99 16 -1.98 16 -3 16 C-2.5359375 14.824375 -2.5359375 14.824375 -2.0625 13.625 C-0.73664193 9.10148422 -0.35188915 4.68568186 0 0 Z " fill="#595B4D" transform="translate(135,56)"/>
<path d="M0 0 C0.66 0 1.32 0 2 0 C2.4560284 5.70035501 1.60412752 8.54784247 -2 13 C-4.70879335 14.35439668 -7.00933268 14.06501451 -10 14 C-7 12 -7 12 -4.4375 10.8125 C-1.09536291 8.32732114 -0.79940254 5.99701272 0 2 C0 1.34 0 0.68 0 0 Z " fill="#967A6A" transform="translate(209,41)"/>
<path d="M0 0 C0.99 0.33 1.98 0.66 3 1 C4.33257403 11.55808656 4.33257403 11.55808656 3 16 C0.96780512 12.59648662 0.63108961 9.6767073 0.375 5.75 C0.30023438 4.67234375 0.22546875 3.5946875 0.1484375 2.484375 C0.09945312 1.66453125 0.05046875 0.8446875 0 0 Z " fill="#565449" transform="translate(141,53)"/>
<path d="M0 0 C1.32 0 2.64 0 4 0 C4 1.98 4 3.96 4 6 C2.35 6.33 0.7 6.66 -1 7 C-2 4 -2 4 -1.0625 1.8125 C-0.5365625 0.9153125 -0.5365625 0.9153125 0 0 Z " fill="#A68976" transform="translate(337,167)"/>
<path d="M0 0 C2.85368392 1.42684196 2.9606425 3.0118472 4 6 C6.28181818 12.84545455 6.28181818 12.84545455 5 17 C2.54582388 11.326858 0.53753096 6.18160604 0 0 Z " fill="#929282" transform="translate(37,186)"/>
<path d="M0 0 C0 0.99 0 1.98 0 3 C-4.455 3.495 -4.455 3.495 -9 4 C-9 4.66 -9 5.32 -9 6 C-9.99 6.33 -10.98 6.66 -12 7 C-9.14032181 0.62071789 -7.11769183 -0.40288822 0 0 Z " fill="#535347" transform="translate(125,43)"/>
<path d="M0 0 C0.33 0.99 0.66 1.98 1 3 C-1.55991624 5.01136276 -4.04590299 6.62845496 -7 8 C-7 7.34 -7 6.68 -7 6 C-8.32 6.33 -9.64 6.66 -11 7 C-8.81482901 4.59424393 -6.74080329 3.20464419 -3.8125 1.8125 C-2.73935547 1.29623047 -2.73935547 1.29623047 -1.64453125 0.76953125 C-1.10183594 0.51558594 -0.55914062 0.26164063 0 0 Z " fill="#797968" transform="translate(89,14)"/>
<path d="M0 0 C0 0.66 0 1.32 0 2 C-1.78710586 2.86366822 -3.5798465 3.71568594 -5.375 4.5625 C-6.37273437 5.03816406 -7.37046875 5.51382813 -8.3984375 6.00390625 C-9.25695312 6.33261719 -10.11546875 6.66132813 -11 7 C-11.66 6.67 -12.32 6.34 -13 6 C-9.30533663 1.73692689 -5.66953339 0 0 0 Z " fill="#4E4E43" transform="translate(216,208)"/>
<path d="M0 0 C0.33 0.99 0.66 1.98 1 3 C0 4.5 0 4.5 -2 6 C-4.79873829 6.39491399 -7.13817454 6.227129 -10 6 C-10.66 5.34 -11.32 4.68 -12 4 C-11.67 3.01 -11.34 2.02 -11 1 C-10.34 1.66 -9.68 2.32 -9 3 C-4.73527274 3.49329585 -4.73527274 3.49329585 -1.125 1.5 C-0.75375 1.005 -0.3825 0.51 0 0 Z " fill="#896E5B" transform="translate(202,82)"/>
<path d="M0 0 C0.66 0.66 1.32 1.32 2 2 C1.195625 2.680625 0.39125 3.36125 -0.4375 4.0625 C-3.42288711 7.48477302 -3.73781251 9.5428126 -4 14 C-4.66 13.34 -5.32 12.68 -6 12 C-5.91471238 7.47975613 -5.44279914 5.50759901 -2.4375 2.0625 C-1.633125 1.381875 -0.82875 0.70125 0 0 Z " fill="#73665C" transform="translate(228,29)"/>
<path d="M0 0 C0.33 0 0.66 0 1 0 C1 2.31 1 4.62 1 7 C3.97 7.495 3.97 7.495 7 8 C6.67 8.66 6.34 9.32 6 10 C3.125 10.1875 3.125 10.1875 0 10 C-2 7 -2 7 -1.6875 3.875 C-1 1 -1 1 0 0 Z " fill="#8F6B5C" transform="translate(323,193)"/>
<path d="M0 0 C0.625 1.8125 0.625 1.8125 1 4 C-1 7 -1 7 -2.8125 7.875 C-5.95366995 8.05449543 -7.53251096 6.85061678 -10 5 C-10 4.34 -10 3.68 -10 3 C-7.36 3.33 -4.72 3.66 -2 4 C-1.34 2.68 -0.68 1.36 0 0 Z " fill="#625548" transform="translate(31,122)"/>
<path d="M0 0 C3 1 3 1 4.38671875 3.1796875 C4.81597656 4.06914063 5.24523437 4.95859375 5.6875 5.875 C6.12449219 6.75929688 6.56148438 7.64359375 7.01171875 8.5546875 C8 11 8 11 8 14 C5 13 5 13 3.8671875 10.8203125 C3.53976562 9.93085937 3.21234375 9.04140625 2.875 8.125 C2.54242188 7.24070312 2.20984375 6.35640625 1.8671875 5.4453125 C1.22583675 3.63681895 0.60679319 1.82037956 0 0 Z " fill="#999584" transform="translate(308,102)"/>
<path d="M0 0 C0.33 0 0.66 0 1 0 C2.5660349 6.06838523 3.18482809 12.44858029 0 18 C-1.03863773 11.76817361 -0.83288874 6.25307239 0 0 Z " fill="#4E4C43" transform="translate(162,54)"/>
<path d="M0 0 C0.99 0.66 1.98 1.32 3 2 C3.1875 5.125 3.1875 5.125 3 8 C2.01 8 1.02 8 0 8 C-3 4.66666667 -3 4.66666667 -3 2 C-2.34 2 -1.68 2 -1 2 C-0.67 1.34 -0.34 0.68 0 0 Z " fill="#7E7567" transform="translate(34,203)"/>
<path d="M0 0 C0.66 0 1.32 0 2 0 C2 1.65 2 3.3 2 5 C4.97 5.495 4.97 5.495 8 6 C7.67 6.66 7.34 7.32 7 8 C4.125 8.125 4.125 8.125 1 8 C-1 6 -1 6 -1.1875 3.4375 C-1 1 -1 1 0 0 Z " fill="#4E4D42" transform="translate(87,44)"/>
<path d="M0 0 C0.66 0.33 1.32 0.66 2 1 C1.67 2.32 1.34 3.64 1 5 C-1.3125 5.625 -1.3125 5.625 -4 6 C-4.99 5.34 -5.98 4.68 -7 4 C-1.7265625 0.77734375 -1.7265625 0.77734375 0 0 Z " fill="#9D9F8D" transform="translate(209,151)"/>
<path d="M0 0 C1.98 0.99 3.96 1.98 6 3 C6 3.33 6 3.66 6 4 C0.39 4 -5.22 4 -11 4 C-11 3.67 -11 3.34 -11 3 C-10.37351562 2.95101563 -9.74703125 2.90203125 -9.1015625 2.8515625 C-8.28429687 2.77679688 -7.46703125 2.70203125 -6.625 2.625 C-5.81289062 2.55539062 -5.00078125 2.48578125 -4.1640625 2.4140625 C-1.79665809 2.17107412 -1.79665809 2.17107412 0 0 Z " fill="#C1C1AE" transform="translate(125,13)"/>
<path d="M0 0 C0.99 0.66 1.98 1.32 3 2 C2.01 4.97 1.02 7.94 0 11 C-2 8 -2 8 -1.7578125 5.95703125 C-1.171875 3.97135417 -0.5859375 1.98567708 0 0 Z " fill="#927864" transform="translate(315,179)"/>
<path d="M0 0 C1.65 0.99 3.3 1.98 5 3 C4.25 4.9375 4.25 4.9375 3 7 C0.875 7.75 0.875 7.75 -1 8 C-0.649375 7.236875 -0.29875 6.47375 0.0625 5.6875 C1.32360884 2.95240621 1.32360884 2.95240621 0 0 Z " fill="#5E5F53" transform="translate(50,79)"/>
<path d="M0 0 C4.7037037 1.48538012 4.7037037 1.48538012 6.1875 4.0625 C6.455625 4.701875 6.72375 5.34125 7 6 C7.66 6.33 8.32 6.66 9 7 C8.67 7.66 8.34 8.32 8 9 C7.34 9 6.68 9 6 9 C4.64613064 7.34997172 3.31321858 5.6825613 2 4 C1.34 3.67 0.68 3.34 0 3 C0 2.01 0 1.02 0 0 Z " fill="#4B4C3F" transform="translate(146,29)"/>
<path d="M0 0 C2.6875 -0.375 2.6875 -0.375 6 0 C8.06398076 1.823983 9.39041053 3.72763839 11 6 C10.01 6 9.02 6 8 6 C7.54625 5.525625 7.0925 5.05125 6.625 4.5625 C4.53633317 2.55416651 2.8216552 2.38130476 0 2 C0 1.34 0 0.68 0 0 Z " fill="#5E564B" transform="translate(9,199)"/>
<path d="M0 0 C1.07765625 0.00902344 2.1553125 0.01804688 3.265625 0.02734375 C4.08546875 0.03894531 4.9053125 0.05054688 5.75 0.0625 C5.75 0.3925 5.75 0.7225 5.75 1.0625 C2.45 1.0625 -0.85 1.0625 -4.25 1.0625 C-4.25 2.0525 -4.25 3.0425 -4.25 4.0625 C-5.24 4.3925 -6.23 4.7225 -7.25 5.0625 C-7.25 4.4025 -7.25 3.7425 -7.25 3.0625 C-8.24 2.4025 -9.23 1.7425 -10.25 1.0625 C-6.78777385 -0.00473961 -3.60960734 -0.03923486 0 0 Z " fill="#707463" transform="translate(224.25,139.9375)"/>
<path d="M0 0 C0.33 0 0.66 0 1 0 C1.66 2.31 2.32 4.62 3 7 C1.02 7.66 -0.96 8.32 -3 9 C-2.67 7.02 -2.34 5.04 -2 3 C-1.34 3 -0.68 3 0 3 C0 2.01 0 1.02 0 0 Z " fill="#555649" transform="translate(61,43)"/>
<path d="M0 0 C1.9375 0.8125 1.9375 0.8125 4 2 C4.33 2.99 4.66 3.98 5 5 C6.99665314 6.68538601 6.99665314 6.68538601 9 8 C6.69 7.67 4.38 7.34 2 7 C1.34 4.69 0.68 2.38 0 0 Z " fill="#898A7C" transform="translate(129,12)"/>
<path d="M0 0 C1.33895632 1.66215268 2.67130142 3.32963607 4 5 C4.598125 5.70125 5.19625 6.4025 5.8125 7.125 C6.204375 7.74375 6.59625 8.3625 7 9 C6.67 9.99 6.34 10.98 6 12 C4.98829382 10.75945552 3.99102203 9.5071298 3 8.25 C2.443125 7.55390625 1.88625 6.8578125 1.3125 6.140625 C0 4 0 4 0 0 Z " fill="#44463A" transform="translate(180,229)"/>
<path d="M0 0 C0.66 0 1.32 0 2 0 C0.34908222 4.29238623 -2.73754566 6.8793915 -6 10 C-6.66 9.67 -7.32 9.34 -8 9 C-6.38405168 6.95880212 -4.7143618 4.95927063 -3 3 C-2.34 3 -1.68 3 -1 3 C-0.67 2.01 -0.34 1.02 0 0 Z " fill="#8A8877" transform="translate(304,177)"/>
<path d="M0 0 C0.99 0.33 1.98 0.66 3 1 C-0.96 4.465 -0.96 4.465 -5 8 C-5.66 7.67 -6.32 7.34 -7 7 C-4.78071806 4.09197539 -3.07030857 2.04687238 0 0 Z " fill="#AAAC9A" transform="translate(191,163)"/>
<path d="M0 0 C0.99 0.33 1.98 0.66 3 1 C2.67 2.32 2.34 3.64 2 5 C0.35 4.67 -1.3 4.34 -3 4 C-2.67 3.01 -2.34 2.02 -2 1 C-1.34 0.67 -0.68 0.34 0 0 Z " fill="#64665B" transform="translate(91,45)"/>
<path d="M0 0 C0.66 0 1.32 0 2 0 C2.66 2.97 3.32 5.94 4 9 C3.01 9.495 3.01 9.495 2 10 C-0.09350689 6.5980513 -0.17942163 3.94727588 0 0 Z " fill="#6D6458" transform="translate(8,201)"/>
<path d="M0 0 C0.66 0 1.32 0 2 0 C2.32613618 4.67461851 1.70582788 7.16674383 -1 11 C-2.60080151 6.99799622 -1.29279692 3.95443764 0 0 Z " fill="#5E6052" transform="translate(276,171)"/>
<path d="M0 0 C5.57142857 5.14285714 5.57142857 5.14285714 6 9 C4.125 8.8125 4.125 8.8125 2 8 C0.47835901 5.10888212 0 3.28176588 0 0 Z " fill="#5F5E52" transform="translate(138,45)"/>
<path d="M0 0 C0.66 0.99 1.32 1.98 2 3 C0.75 4.5625 0.75 4.5625 -1 6 C-3.1875 5.6875 -3.1875 5.6875 -5 5 C-4 2 -4 2 -1.9375 0.8125 C-1.298125 0.544375 -0.65875 0.27625 0 0 Z " fill="#ADAD9A" transform="translate(166,224)"/>
<path d="M0 0 C0.66 0 1.32 0 2 0 C3.5625 2.8125 3.5625 2.8125 5 6 C4.67 6.99 4.34 7.98 4 9 C1.18167487 7.59083743 0.97406539 5.92219617 0 3 C0 2.01 0 1.02 0 0 Z " fill="#595047" transform="translate(31,193)"/>
<path d="M0 0 C0.66 0.33 1.32 0.66 2 1 C2 2.66666667 2 4.33333333 2 6 C1.01 6.495 1.01 6.495 0 7 C-0.33 6.34 -0.66 5.68 -1 5 C-1.99 5 -2.98 5 -4 5 C-2.25 1.125 -2.25 1.125 0 0 Z " fill="#57584D" transform="translate(61,68)"/>
<path d="M0 0 C0 3.21812786 -0.05758039 4.4664092 -2 7 C-5.625 7.75 -5.625 7.75 -9 8 C-7 6 -7 6 -4 5 C-3.30062468 3.68352881 -2.63270867 2.34977849 -2 1 C-1.34 0.67 -0.68 0.34 0 0 Z " fill="#9A9A87" transform="translate(93,12)"/>
<path d="M0 0 C-0.33 0.99 -0.66 1.98 -1 3 C-2.65 3.33 -4.3 3.66 -6 4 C-6 3.34 -6 2.68 -6 2 C-6.99 1.67 -7.98 1.34 -9 1 C-5.8035914 -0.06546953 -3.34252724 -0.07427838 0 0 Z " fill="#9B8275" transform="translate(265,233)"/>
<path d="M0 0 C1.32 1.65 2.64 3.3 4 5 C3.34 5 2.68 5 2 5 C1.67 5.66 1.34 6.32 1 7 C0.01 7 -0.98 7 -2 7 C-2 2 -2 2 0 0 Z " fill="#686E5C" transform="translate(115,144)"/>
<path d="M0 0 C2.33333333 2.33333333 4.66666667 4.66666667 7 7 C6.67 7.99 6.34 8.98 6 10 C2.46413986 6.82679218 0.41421969 4.83256305 0 0 Z " fill="#989485" transform="translate(301,91)"/>
<path d="M0 0 C6.70212766 1.93617021 6.70212766 1.93617021 9 5 C9 5.66 9 6.32 9 7 C5.18315774 5.44499019 2.80804268 2.96404505 0 0 Z " fill="#43443A" transform="translate(124,44)"/>
<path d="M0 0 C0.66 0.33 1.32 0.66 2 1 C1.38461538 6.53846154 1.38461538 6.53846154 -0.5625 8.875 C-1.036875 9.24625 -1.51125 9.6175 -2 10 C-3.39195915 5.82412255 -1.82323219 3.86525224 0 0 Z " fill="#77695C" transform="translate(239,34)"/>
<path d="M0 0 C3.465 1.485 3.465 1.485 7 3 C6.67 4.32 6.34 5.64 6 7 C3.73576718 5.86788359 1.91487817 4.65956108 0 3 C0 2.01 0 1.02 0 0 Z " fill="#69695E" transform="translate(133,14)"/>
<path d="M0 0 C0.66 0 1.32 0 2 0 C2 0.66 2 1.32 2 2 C2.66 2.33 3.32 2.66 4 3 C3.67 3.66 3.34 4.32 3 5 C1.02 5 -0.96 5 -3 5 C-2 3 -2 3 0 0 Z " fill="#B9B49F" transform="translate(100,12)"/>
<path d="M0 0 C0.33 0 0.66 0 1 0 C1.22162329 1.62324086 1.42689803 3.248721 1.625 4.875 C1.74101562 5.77992188 1.85703125 6.68484375 1.9765625 7.6171875 C1.98429688 8.40351563 1.99203125 9.18984375 2 10 C1.34 10.66 0.68 11.32 0 12 C-1.28571429 3.42857143 -1.28571429 3.42857143 0 0 Z " fill="#545449" transform="translate(179,219)"/>
<path d="M0 0 C1.32 0.33 2.64 0.66 4 1 C3.01 2.32 2.02 3.64 1 5 C-0.32 4.67 -1.64 4.34 -3 4 C-2.34 4 -1.68 4 -1 4 C-0.67 2.68 -0.34 1.36 0 0 Z " fill="#999788" transform="translate(293,185)"/>
<path d="M0 0 C0.66 0.33 1.32 0.66 2 1 C0.625 3 0.625 3 -1 5 C-1.66 5 -2.32 5 -3 5 C-3 5.66 -3 6.32 -3 7 C-4.32 6.34 -5.64 5.68 -7 5 C-4.69 3.35 -2.38 1.7 0 0 Z " fill="#9BA08C" transform="translate(176,140)"/>
<path d="M0 0 C-0.33 0.66 -0.66 1.32 -1 2 C-3.28515625 2.4140625 -3.28515625 2.4140625 -6.0625 2.625 C-6.98160156 2.69976562 -7.90070313 2.77453125 -8.84765625 2.8515625 C-9.55792969 2.90054688 -10.26820313 2.94953125 -11 3 C-4.33333333 -1.44444444 -4.33333333 -1.44444444 0 0 Z " fill="#999C8A" transform="translate(243,187)"/>
<path d="M0 0 C3.73487777 0.4979837 5.81237635 0.87491756 9 3 C8.67 3.99 8.34 4.98 8 6 C7.236875 5.38125 6.47375 4.7625 5.6875 4.125 C3.00374191 1.94402948 3.00374191 1.94402948 0 0 Z " fill="#AAAC9A" transform="translate(232,150)"/>
<path d="M0 0 C0.99 0.33 1.98 0.66 3 1 C1.68 2.65 0.36 4.3 -1 6 C-1.99 5.67 -2.98 5.34 -4 5 C-3 2 -3 2 0 0 Z " fill="#585C4D" transform="translate(136,104)"/>
<path d="M0 0 C2.64 0.33 5.28 0.66 8 1 C7.67 1.66 7.34 2.32 7 3 C5.02 3 3.04 3 1 3 C0.67 2.01 0.34 1.02 0 0 Z " fill="#46473C" transform="translate(43,77)"/>
<path d="M0 0 C1.65 0.33 3.3 0.66 5 1 C4.401875 1.268125 3.80375 1.53625 3.1875 1.8125 C1.02775192 2.98493467 -0.35790256 4.19369282 -2 6 C-2.66 5.67 -3.32 5.34 -4 5 C-2.68 3.35 -1.36 1.7 0 0 Z " fill="#8D7666" transform="translate(313,175)"/>
<path d="M0 0 C1.32 0.33 2.64 0.66 4 1 C1.6875 3.0625 1.6875 3.0625 -1 5 C-1.99 4.67 -2.98 4.34 -4 4 C-2.68 3.34 -1.36 2.68 0 2 C0 1.34 0 0.68 0 0 Z " fill="#505046" transform="translate(125,85)"/>
<path d="M0 0 C0.33 0.99 0.66 1.98 1 3 C-2.4352048 5.29013653 -3.985331 5.17842973 -8 5 C-5.37352812 3.24901874 -2.71224618 1.61268692 0 0 Z " fill="#917061" transform="translate(207,50)"/>
</svg>
